<mxfile host="app.diagrams.net" modified="2023-11-17T12:21:02.211Z" agent="Mozilla/5.0 (Windows NT 10.0; Win64; x64) AppleWebKit/537.36 (KHTML, like Gecko) Chrome/119.0.0.0 Safari/537.36" etag="W2Mc9xyCAGE9iQcKEaHS" version="22.1.2" type="google" pages="3">
  <diagram id="R2lEEEUBdFMjLlhIrx00" name="ER다이어그램">
    <mxGraphModel grid="1" page="1" gridSize="10" guides="1" tooltips="1" connect="1" arrows="1" fold="1" pageScale="1" pageWidth="1654" pageHeight="1169" math="0" shadow="0" extFonts="Permanent Marker^https://fonts.googleapis.com/css?family=Permanent+Marker">
      <root>
        <mxCell id="0" />
        <mxCell id="1" parent="0" />
        <mxCell id="5j9Tdw26XCqUhP6ib2Jm-17" value="&lt;font style=&quot;font-size: 18px;&quot;&gt;Nationality&lt;/font&gt;" style="shape=rhombus;perimeter=rhombusPerimeter;whiteSpace=wrap;html=1;align=center;" vertex="1" parent="1">
          <mxGeometry x="485" y="330" width="120" height="60" as="geometry" />
        </mxCell>
        <mxCell id="I-lvZOV8MtSqsDIcfmFb-42" style="rounded=0;orthogonalLoop=1;jettySize=auto;html=1;exitX=0.5;exitY=1;exitDx=0;exitDy=0;entryX=0.5;entryY=1;entryDx=0;entryDy=0;strokeColor=default;endArrow=none;endFill=0;" edge="1" parent="1" source="I-lvZOV8MtSqsDIcfmFb-37" target="I-lvZOV8MtSqsDIcfmFb-28">
          <mxGeometry relative="1" as="geometry">
            <mxPoint x="730" y="635" as="sourcePoint" />
            <mxPoint x="810" y="635" as="targetPoint" />
          </mxGeometry>
        </mxCell>
        <mxCell id="I-lvZOV8MtSqsDIcfmFb-100" style="rounded=0;orthogonalLoop=1;jettySize=auto;html=1;exitX=0.5;exitY=0;exitDx=0;exitDy=0;entryX=0.5;entryY=1;entryDx=0;entryDy=0;endArrow=none;endFill=0;" edge="1" parent="1" source="I-lvZOV8MtSqsDIcfmFb-99" target="I-lvZOV8MtSqsDIcfmFb-94">
          <mxGeometry relative="1" as="geometry">
            <mxPoint x="1505" y="155" as="sourcePoint" />
            <mxPoint x="1410" y="185" as="targetPoint" />
          </mxGeometry>
        </mxCell>
        <mxCell id="I-lvZOV8MtSqsDIcfmFb-9" style="rounded=0;orthogonalLoop=1;jettySize=auto;html=1;exitX=0.5;exitY=1;exitDx=0;exitDy=0;endArrow=none;endFill=0;" edge="1" parent="1" source="I-lvZOV8MtSqsDIcfmFb-6" target="I-lvZOV8MtSqsDIcfmFb-4">
          <mxGeometry relative="1" as="geometry">
            <mxPoint x="265" y="130" as="sourcePoint" />
            <mxPoint x="350" y="160" as="targetPoint" />
          </mxGeometry>
        </mxCell>
        <mxCell id="I-lvZOV8MtSqsDIcfmFb-8" style="rounded=0;orthogonalLoop=1;jettySize=auto;html=1;exitX=0.5;exitY=0;exitDx=0;exitDy=0;endArrow=none;endFill=0;entryX=0.5;entryY=1;entryDx=0;entryDy=0;" edge="1" parent="1" source="I-lvZOV8MtSqsDIcfmFb-5" target="I-lvZOV8MtSqsDIcfmFb-4">
          <mxGeometry relative="1" as="geometry">
            <mxPoint x="355" y="110" as="sourcePoint" />
            <mxPoint x="370" y="210" as="targetPoint" />
          </mxGeometry>
        </mxCell>
        <mxCell id="I-lvZOV8MtSqsDIcfmFb-7" style="rounded=0;orthogonalLoop=1;jettySize=auto;html=1;exitX=0.5;exitY=0;exitDx=0;exitDy=0;entryX=0;entryY=0;entryDx=0;entryDy=0;endArrow=none;endFill=0;" edge="1" parent="1" source="I-lvZOV8MtSqsDIcfmFb-2" target="I-lvZOV8MtSqsDIcfmFb-4">
          <mxGeometry relative="1" as="geometry" />
        </mxCell>
        <mxCell id="I-lvZOV8MtSqsDIcfmFb-2" value="CountryID" style="ellipse;whiteSpace=wrap;html=1;fontSize=16;fontStyle=4" vertex="1" parent="1">
          <mxGeometry x="140" y="40" width="90" height="50" as="geometry" />
        </mxCell>
        <mxCell id="I-lvZOV8MtSqsDIcfmFb-4" value="&lt;font style=&quot;font-size: 20px;&quot;&gt;Country&lt;/font&gt;" style="rounded=0;whiteSpace=wrap;html=1;" vertex="1" parent="1">
          <mxGeometry x="270" y="160" width="120" height="60" as="geometry" />
        </mxCell>
        <mxCell id="I-lvZOV8MtSqsDIcfmFb-5" value="C_Name" style="ellipse;whiteSpace=wrap;html=1;fontSize=16;" vertex="1" parent="1">
          <mxGeometry x="285" y="30" width="90" height="50" as="geometry" />
        </mxCell>
        <mxCell id="I-lvZOV8MtSqsDIcfmFb-6" value="C_Code" style="ellipse;whiteSpace=wrap;html=1;fontSize=16;" vertex="1" parent="1">
          <mxGeometry x="420" y="40" width="90" height="50" as="geometry" />
        </mxCell>
        <mxCell id="I-lvZOV8MtSqsDIcfmFb-10" value="&lt;font style=&quot;font-size: 20px;&quot;&gt;Subscription&lt;/font&gt;" style="rounded=0;whiteSpace=wrap;html=1;" vertex="1" parent="1">
          <mxGeometry x="220" y="575" width="120" height="60" as="geometry" />
        </mxCell>
        <mxCell id="I-lvZOV8MtSqsDIcfmFb-12" style="rounded=0;orthogonalLoop=1;jettySize=auto;html=1;exitX=0.5;exitY=0;exitDx=0;exitDy=0;entryX=0.25;entryY=1;entryDx=0;entryDy=0;strokeColor=default;endArrow=none;endFill=0;" edge="1" parent="1" source="I-lvZOV8MtSqsDIcfmFb-11" target="I-lvZOV8MtSqsDIcfmFb-10">
          <mxGeometry relative="1" as="geometry" />
        </mxCell>
        <mxCell id="I-lvZOV8MtSqsDIcfmFb-11" value="SubID" style="ellipse;whiteSpace=wrap;html=1;fontSize=16;fontStyle=4" vertex="1" parent="1">
          <mxGeometry x="120" y="675" width="90" height="50" as="geometry" />
        </mxCell>
        <mxCell id="I-lvZOV8MtSqsDIcfmFb-18" style="rounded=0;orthogonalLoop=1;jettySize=auto;html=1;exitX=0.5;exitY=0;exitDx=0;exitDy=0;entryX=0.75;entryY=1;entryDx=0;entryDy=0;strokeColor=default;endArrow=none;endFill=0;" edge="1" parent="1" source="I-lvZOV8MtSqsDIcfmFb-19" target="I-lvZOV8MtSqsDIcfmFb-10">
          <mxGeometry relative="1" as="geometry">
            <mxPoint x="405" y="675" as="sourcePoint" />
            <mxPoint x="260" y="645" as="targetPoint" />
          </mxGeometry>
        </mxCell>
        <mxCell id="I-lvZOV8MtSqsDIcfmFb-19" value="SubType" style="ellipse;whiteSpace=wrap;html=1;fontSize=16;" vertex="1" parent="1">
          <mxGeometry x="360" y="675" width="90" height="50" as="geometry" />
        </mxCell>
        <mxCell id="I-lvZOV8MtSqsDIcfmFb-20" value="Premium" style="ellipse;whiteSpace=wrap;html=1;fontSize=16;" vertex="1" parent="1">
          <mxGeometry x="120" y="495" width="90" height="50" as="geometry" />
        </mxCell>
        <mxCell id="I-lvZOV8MtSqsDIcfmFb-21" value="Listening&lt;br&gt;Limit" style="ellipse;whiteSpace=wrap;html=1;fontSize=16;" vertex="1" parent="1">
          <mxGeometry x="235" y="470" width="90" height="50" as="geometry" />
        </mxCell>
        <mxCell id="I-lvZOV8MtSqsDIcfmFb-22" value="Sub_&lt;br&gt;StartDate" style="ellipse;whiteSpace=wrap;html=1;fontSize=16;" vertex="1" parent="1">
          <mxGeometry x="235" y="715" width="90" height="50" as="geometry" />
        </mxCell>
        <mxCell id="I-lvZOV8MtSqsDIcfmFb-23" value="Sub_&lt;br&gt;Period" style="ellipse;whiteSpace=wrap;html=1;fontSize=16;" vertex="1" parent="1">
          <mxGeometry x="50" y="580" width="90" height="50" as="geometry" />
        </mxCell>
        <mxCell id="I-lvZOV8MtSqsDIcfmFb-24" style="rounded=0;orthogonalLoop=1;jettySize=auto;html=1;exitX=1;exitY=0.5;exitDx=0;exitDy=0;entryX=0;entryY=0.5;entryDx=0;entryDy=0;strokeColor=default;endArrow=none;endFill=0;" edge="1" parent="1" source="I-lvZOV8MtSqsDIcfmFb-23" target="I-lvZOV8MtSqsDIcfmFb-10">
          <mxGeometry relative="1" as="geometry">
            <mxPoint x="135" y="655" as="sourcePoint" />
            <mxPoint x="220" y="615" as="targetPoint" />
          </mxGeometry>
        </mxCell>
        <mxCell id="I-lvZOV8MtSqsDIcfmFb-25" style="rounded=0;orthogonalLoop=1;jettySize=auto;html=1;exitX=0.5;exitY=1;exitDx=0;exitDy=0;entryX=0.25;entryY=0;entryDx=0;entryDy=0;strokeColor=default;endArrow=none;endFill=0;" edge="1" parent="1" source="I-lvZOV8MtSqsDIcfmFb-20" target="I-lvZOV8MtSqsDIcfmFb-10">
          <mxGeometry relative="1" as="geometry">
            <mxPoint x="150" y="615" as="sourcePoint" />
            <mxPoint x="230" y="615" as="targetPoint" />
          </mxGeometry>
        </mxCell>
        <mxCell id="I-lvZOV8MtSqsDIcfmFb-26" style="rounded=0;orthogonalLoop=1;jettySize=auto;html=1;exitX=0.5;exitY=1;exitDx=0;exitDy=0;entryX=0.5;entryY=0;entryDx=0;entryDy=0;strokeColor=default;endArrow=none;endFill=0;" edge="1" parent="1" source="I-lvZOV8MtSqsDIcfmFb-21" target="I-lvZOV8MtSqsDIcfmFb-10">
          <mxGeometry relative="1" as="geometry">
            <mxPoint x="160" y="625" as="sourcePoint" />
            <mxPoint x="240" y="625" as="targetPoint" />
          </mxGeometry>
        </mxCell>
        <mxCell id="I-lvZOV8MtSqsDIcfmFb-27" style="rounded=0;orthogonalLoop=1;jettySize=auto;html=1;exitX=0.5;exitY=0;exitDx=0;exitDy=0;entryX=0.5;entryY=1;entryDx=0;entryDy=0;strokeColor=default;endArrow=none;endFill=0;" edge="1" parent="1" source="I-lvZOV8MtSqsDIcfmFb-22" target="I-lvZOV8MtSqsDIcfmFb-10">
          <mxGeometry relative="1" as="geometry">
            <mxPoint x="450" y="590" as="sourcePoint" />
            <mxPoint x="250" y="635" as="targetPoint" />
          </mxGeometry>
        </mxCell>
        <mxCell id="I-lvZOV8MtSqsDIcfmFb-28" value="&lt;font style=&quot;font-size: 20px;&quot;&gt;Users&lt;/font&gt;" style="rounded=0;whiteSpace=wrap;html=1;" vertex="1" parent="1">
          <mxGeometry x="775" y="575" width="120" height="60" as="geometry" />
        </mxCell>
        <mxCell id="I-lvZOV8MtSqsDIcfmFb-29" style="rounded=0;orthogonalLoop=1;jettySize=auto;html=1;exitX=1;exitY=0.5;exitDx=0;exitDy=0;entryX=0.25;entryY=1;entryDx=0;entryDy=0;strokeColor=default;endArrow=none;endFill=0;" edge="1" parent="1" source="I-lvZOV8MtSqsDIcfmFb-30" target="I-lvZOV8MtSqsDIcfmFb-28">
          <mxGeometry relative="1" as="geometry" />
        </mxCell>
        <mxCell id="I-lvZOV8MtSqsDIcfmFb-30" value="UserID" style="ellipse;whiteSpace=wrap;html=1;fontSize=16;fontStyle=4" vertex="1" parent="1">
          <mxGeometry x="640" y="730" width="90" height="50" as="geometry" />
        </mxCell>
        <mxCell id="I-lvZOV8MtSqsDIcfmFb-35" value="UserName" style="ellipse;whiteSpace=wrap;html=1;fontSize=16;" vertex="1" parent="1">
          <mxGeometry x="570" y="635" width="90" height="50" as="geometry" />
        </mxCell>
        <mxCell id="I-lvZOV8MtSqsDIcfmFb-36" value="RealName" style="ellipse;whiteSpace=wrap;html=1;fontSize=16;" vertex="1" parent="1">
          <mxGeometry x="1000" y="675" width="90" height="50" as="geometry" />
        </mxCell>
        <mxCell id="I-lvZOV8MtSqsDIcfmFb-37" value="Date_&lt;br&gt;Birth" style="ellipse;whiteSpace=wrap;html=1;fontSize=16;" vertex="1" parent="1">
          <mxGeometry x="795" y="820" width="90" height="50" as="geometry" />
        </mxCell>
        <mxCell id="I-lvZOV8MtSqsDIcfmFb-38" value="Gender" style="ellipse;whiteSpace=wrap;html=1;fontSize=16;" vertex="1" parent="1">
          <mxGeometry x="730" y="765" width="90" height="50" as="geometry" />
        </mxCell>
        <mxCell id="I-lvZOV8MtSqsDIcfmFb-39" style="rounded=0;orthogonalLoop=1;jettySize=auto;html=1;exitX=0.5;exitY=0;exitDx=0;exitDy=0;strokeColor=default;endArrow=none;endFill=0;entryX=0.5;entryY=1;entryDx=0;entryDy=0;" edge="1" parent="1" source="I-lvZOV8MtSqsDIcfmFb-38" target="I-lvZOV8MtSqsDIcfmFb-28">
          <mxGeometry relative="1" as="geometry">
            <mxPoint x="695" y="655" as="sourcePoint" />
            <mxPoint x="840" y="655" as="targetPoint" />
          </mxGeometry>
        </mxCell>
        <mxCell id="I-lvZOV8MtSqsDIcfmFb-40" style="rounded=0;orthogonalLoop=1;jettySize=auto;html=1;exitX=1;exitY=0.5;exitDx=0;exitDy=0;entryX=0;entryY=0.75;entryDx=0;entryDy=0;strokeColor=default;endArrow=none;endFill=0;" edge="1" parent="1" source="I-lvZOV8MtSqsDIcfmFb-35" target="I-lvZOV8MtSqsDIcfmFb-28">
          <mxGeometry relative="1" as="geometry">
            <mxPoint x="710" y="615" as="sourcePoint" />
            <mxPoint x="790" y="615" as="targetPoint" />
          </mxGeometry>
        </mxCell>
        <mxCell id="I-lvZOV8MtSqsDIcfmFb-41" style="rounded=0;orthogonalLoop=1;jettySize=auto;html=1;exitX=0;exitY=0.5;exitDx=0;exitDy=0;strokeColor=default;endArrow=none;endFill=0;entryX=1;entryY=0.75;entryDx=0;entryDy=0;" edge="1" parent="1" source="I-lvZOV8MtSqsDIcfmFb-36" target="I-lvZOV8MtSqsDIcfmFb-28">
          <mxGeometry relative="1" as="geometry">
            <mxPoint x="720" y="625" as="sourcePoint" />
            <mxPoint x="900" y="620" as="targetPoint" />
          </mxGeometry>
        </mxCell>
        <mxCell id="I-lvZOV8MtSqsDIcfmFb-58" value="Email" style="ellipse;whiteSpace=wrap;html=1;fontSize=16;" vertex="1" parent="1">
          <mxGeometry x="850" y="765" width="90" height="50" as="geometry" />
        </mxCell>
        <mxCell id="I-lvZOV8MtSqsDIcfmFb-59" style="rounded=0;orthogonalLoop=1;jettySize=auto;html=1;exitX=0.5;exitY=0;exitDx=0;exitDy=0;strokeColor=default;endArrow=none;endFill=0;entryX=0.5;entryY=1;entryDx=0;entryDy=0;" edge="1" parent="1" source="I-lvZOV8MtSqsDIcfmFb-58" target="I-lvZOV8MtSqsDIcfmFb-28">
          <mxGeometry relative="1" as="geometry">
            <mxPoint x="975" y="555" as="sourcePoint" />
            <mxPoint x="850" y="660" as="targetPoint" />
          </mxGeometry>
        </mxCell>
        <mxCell id="I-lvZOV8MtSqsDIcfmFb-83" style="rounded=0;orthogonalLoop=1;jettySize=auto;html=1;exitX=0.5;exitY=1;exitDx=0;exitDy=0;entryX=0.25;entryY=0;entryDx=0;entryDy=0;endArrow=none;endFill=0;" edge="1" parent="1" source="I-lvZOV8MtSqsDIcfmFb-84" target="I-lvZOV8MtSqsDIcfmFb-85">
          <mxGeometry relative="1" as="geometry" />
        </mxCell>
        <mxCell id="I-lvZOV8MtSqsDIcfmFb-84" value="ArtistID" style="ellipse;whiteSpace=wrap;html=1;fontSize=16;fontStyle=4" vertex="1" parent="1">
          <mxGeometry x="680" y="50" width="90" height="50" as="geometry" />
        </mxCell>
        <mxCell id="I-lvZOV8MtSqsDIcfmFb-85" value="&lt;font style=&quot;font-size: 20px;&quot;&gt;Artist&lt;/font&gt;" style="rounded=0;whiteSpace=wrap;html=1;" vertex="1" parent="1">
          <mxGeometry x="775" y="160" width="120" height="60" as="geometry" />
        </mxCell>
        <mxCell id="I-lvZOV8MtSqsDIcfmFb-90" value="Artist_&lt;br&gt;Name" style="ellipse;whiteSpace=wrap;html=1;fontSize=16;" vertex="1" parent="1">
          <mxGeometry x="790" y="50" width="90" height="50" as="geometry" />
        </mxCell>
        <mxCell id="I-lvZOV8MtSqsDIcfmFb-91" style="rounded=0;orthogonalLoop=1;jettySize=auto;html=1;exitX=0.5;exitY=1;exitDx=0;exitDy=0;entryX=0.5;entryY=0;entryDx=0;entryDy=0;endArrow=none;endFill=0;" edge="1" parent="1" source="I-lvZOV8MtSqsDIcfmFb-90" target="I-lvZOV8MtSqsDIcfmFb-85">
          <mxGeometry relative="1" as="geometry">
            <mxPoint x="1115" y="160" as="sourcePoint" />
            <mxPoint x="1020" y="190" as="targetPoint" />
          </mxGeometry>
        </mxCell>
        <mxCell id="I-lvZOV8MtSqsDIcfmFb-92" style="rounded=0;orthogonalLoop=1;jettySize=auto;html=1;exitX=0.5;exitY=1;exitDx=0;exitDy=0;entryX=0.25;entryY=0;entryDx=0;entryDy=0;endArrow=none;endFill=0;" edge="1" parent="1" source="I-lvZOV8MtSqsDIcfmFb-93" target="I-lvZOV8MtSqsDIcfmFb-94">
          <mxGeometry relative="1" as="geometry" />
        </mxCell>
        <mxCell id="I-lvZOV8MtSqsDIcfmFb-93" value="AlbumID" style="ellipse;whiteSpace=wrap;html=1;fontSize=16;fontStyle=4" vertex="1" parent="1">
          <mxGeometry x="1180" y="30" width="90" height="50" as="geometry" />
        </mxCell>
        <mxCell id="I-lvZOV8MtSqsDIcfmFb-94" value="&lt;font style=&quot;font-size: 20px;&quot;&gt;Album&lt;/font&gt;" style="rounded=0;whiteSpace=wrap;html=1;" vertex="1" parent="1">
          <mxGeometry x="1240" y="160" width="120" height="60" as="geometry" />
        </mxCell>
        <mxCell id="I-lvZOV8MtSqsDIcfmFb-96" value="AlbumName" style="ellipse;whiteSpace=wrap;html=1;fontSize=16;fontStyle=0" vertex="1" parent="1">
          <mxGeometry x="1330" y="30" width="90" height="50" as="geometry" />
        </mxCell>
        <mxCell id="I-lvZOV8MtSqsDIcfmFb-98" style="rounded=0;orthogonalLoop=1;jettySize=auto;html=1;exitX=0.5;exitY=1;exitDx=0;exitDy=0;entryX=0.75;entryY=0;entryDx=0;entryDy=0;endArrow=none;endFill=0;" edge="1" parent="1" source="I-lvZOV8MtSqsDIcfmFb-96" target="I-lvZOV8MtSqsDIcfmFb-94">
          <mxGeometry relative="1" as="geometry">
            <mxPoint x="1275" y="165" as="sourcePoint" />
            <mxPoint x="1360" y="195" as="targetPoint" />
          </mxGeometry>
        </mxCell>
        <mxCell id="I-lvZOV8MtSqsDIcfmFb-99" value="Release_&lt;br&gt;Date" style="ellipse;whiteSpace=wrap;html=1;fontSize=16;" vertex="1" parent="1">
          <mxGeometry x="1255" y="280" width="90" height="50" as="geometry" />
        </mxCell>
        <mxCell id="I-lvZOV8MtSqsDIcfmFb-110" value="&lt;font style=&quot;font-size: 20px;&quot;&gt;Songs&lt;/font&gt;" style="rounded=0;whiteSpace=wrap;html=1;" vertex="1" parent="1">
          <mxGeometry x="1880" y="160" width="120" height="60" as="geometry" />
        </mxCell>
        <mxCell id="I-lvZOV8MtSqsDIcfmFb-117" value="&lt;u&gt;SongID&lt;/u&gt;" style="ellipse;whiteSpace=wrap;html=1;fontSize=16;" vertex="1" parent="1">
          <mxGeometry x="1780" y="40" width="90" height="50" as="geometry" />
        </mxCell>
        <mxCell id="I-lvZOV8MtSqsDIcfmFb-118" value="Title" style="ellipse;whiteSpace=wrap;html=1;fontSize=16;" vertex="1" parent="1">
          <mxGeometry x="1895" y="20" width="90" height="50" as="geometry" />
        </mxCell>
        <mxCell id="I-lvZOV8MtSqsDIcfmFb-119" value="TrackNum" style="ellipse;whiteSpace=wrap;html=1;fontSize=16;" vertex="1" parent="1">
          <mxGeometry x="2020" y="40" width="90" height="50" as="geometry" />
        </mxCell>
        <mxCell id="I-lvZOV8MtSqsDIcfmFb-120" value="DiskNum" style="ellipse;whiteSpace=wrap;html=1;fontSize=16;" vertex="1" parent="1">
          <mxGeometry x="1670" y="80" width="90" height="50" as="geometry" />
        </mxCell>
        <mxCell id="I-lvZOV8MtSqsDIcfmFb-121" style="rounded=0;orthogonalLoop=1;jettySize=auto;html=1;exitX=1;exitY=0.5;exitDx=0;exitDy=0;entryX=0;entryY=0.25;entryDx=0;entryDy=0;strokeColor=default;endArrow=none;endFill=0;" edge="1" parent="1" source="I-lvZOV8MtSqsDIcfmFb-120" target="I-lvZOV8MtSqsDIcfmFb-110">
          <mxGeometry relative="1" as="geometry">
            <mxPoint x="1795" y="250" as="sourcePoint" />
            <mxPoint x="1880" y="210" as="targetPoint" />
          </mxGeometry>
        </mxCell>
        <mxCell id="I-lvZOV8MtSqsDIcfmFb-122" style="rounded=0;orthogonalLoop=1;jettySize=auto;html=1;exitX=0.5;exitY=1;exitDx=0;exitDy=0;entryX=0.25;entryY=0;entryDx=0;entryDy=0;strokeColor=default;endArrow=none;endFill=0;" edge="1" parent="1" source="I-lvZOV8MtSqsDIcfmFb-117" target="I-lvZOV8MtSqsDIcfmFb-110">
          <mxGeometry relative="1" as="geometry">
            <mxPoint x="1810" y="210" as="sourcePoint" />
            <mxPoint x="1890" y="210" as="targetPoint" />
          </mxGeometry>
        </mxCell>
        <mxCell id="I-lvZOV8MtSqsDIcfmFb-123" style="rounded=0;orthogonalLoop=1;jettySize=auto;html=1;exitX=0.5;exitY=1;exitDx=0;exitDy=0;entryX=0.5;entryY=0;entryDx=0;entryDy=0;strokeColor=default;endArrow=none;endFill=0;" edge="1" parent="1" source="I-lvZOV8MtSqsDIcfmFb-118" target="I-lvZOV8MtSqsDIcfmFb-110">
          <mxGeometry relative="1" as="geometry">
            <mxPoint x="1820" y="220" as="sourcePoint" />
            <mxPoint x="1900" y="220" as="targetPoint" />
          </mxGeometry>
        </mxCell>
        <mxCell id="I-lvZOV8MtSqsDIcfmFb-124" style="rounded=0;orthogonalLoop=1;jettySize=auto;html=1;exitX=0.5;exitY=1;exitDx=0;exitDy=0;entryX=0.75;entryY=0;entryDx=0;entryDy=0;strokeColor=default;endArrow=none;endFill=0;" edge="1" parent="1" source="I-lvZOV8MtSqsDIcfmFb-119" target="I-lvZOV8MtSqsDIcfmFb-110">
          <mxGeometry relative="1" as="geometry">
            <mxPoint x="1830" y="230" as="sourcePoint" />
            <mxPoint x="1910" y="230" as="targetPoint" />
          </mxGeometry>
        </mxCell>
        <mxCell id="I-lvZOV8MtSqsDIcfmFb-127" value="Explicit" style="ellipse;whiteSpace=wrap;html=1;fontSize=16;" vertex="1" parent="1">
          <mxGeometry x="2130" y="165" width="90" height="50" as="geometry" />
        </mxCell>
        <mxCell id="I-lvZOV8MtSqsDIcfmFb-128" style="rounded=0;orthogonalLoop=1;jettySize=auto;html=1;exitX=0;exitY=0.5;exitDx=0;exitDy=0;entryX=1;entryY=0.5;entryDx=0;entryDy=0;strokeColor=default;endArrow=none;endFill=0;" edge="1" parent="1" source="I-lvZOV8MtSqsDIcfmFb-127" target="I-lvZOV8MtSqsDIcfmFb-110">
          <mxGeometry relative="1" as="geometry">
            <mxPoint x="2090" y="185" as="sourcePoint" />
            <mxPoint x="2010" y="210" as="targetPoint" />
          </mxGeometry>
        </mxCell>
        <mxCell id="I-lvZOV8MtSqsDIcfmFb-130" style="rounded=0;orthogonalLoop=1;jettySize=auto;html=1;exitX=0.5;exitY=0;exitDx=0;exitDy=0;entryX=0.25;entryY=1;entryDx=0;entryDy=0;strokeColor=default;endArrow=none;endFill=0;" edge="1" parent="1" source="I-lvZOV8MtSqsDIcfmFb-131">
          <mxGeometry relative="1" as="geometry">
            <mxPoint x="1910" y="605" as="targetPoint" />
          </mxGeometry>
        </mxCell>
        <mxCell id="I-lvZOV8MtSqsDIcfmFb-131" value="Energy" style="ellipse;whiteSpace=wrap;html=1;fontSize=16;fontStyle=0" vertex="1" parent="1">
          <mxGeometry x="1780" y="645" width="90" height="50" as="geometry" />
        </mxCell>
        <mxCell id="I-lvZOV8MtSqsDIcfmFb-132" value="Loudness" style="ellipse;whiteSpace=wrap;html=1;fontSize=16;fontStyle=0" vertex="1" parent="1">
          <mxGeometry x="1895" y="645" width="90" height="50" as="geometry" />
        </mxCell>
        <mxCell id="I-lvZOV8MtSqsDIcfmFb-133" style="rounded=0;orthogonalLoop=1;jettySize=auto;html=1;exitX=0.5;exitY=0;exitDx=0;exitDy=0;entryX=0.5;entryY=1;entryDx=0;entryDy=0;strokeColor=default;endArrow=none;endFill=0;" edge="1" parent="1" source="I-lvZOV8MtSqsDIcfmFb-132">
          <mxGeometry relative="1" as="geometry">
            <mxPoint x="1835" y="655" as="sourcePoint" />
            <mxPoint x="1940" y="605" as="targetPoint" />
          </mxGeometry>
        </mxCell>
        <mxCell id="I-lvZOV8MtSqsDIcfmFb-134" style="rounded=0;orthogonalLoop=1;jettySize=auto;html=1;exitX=0.5;exitY=0;exitDx=0;exitDy=0;entryX=0.75;entryY=1;entryDx=0;entryDy=0;strokeColor=default;endArrow=none;endFill=0;" edge="1" parent="1" source="I-lvZOV8MtSqsDIcfmFb-135">
          <mxGeometry relative="1" as="geometry">
            <mxPoint x="2065" y="645" as="sourcePoint" />
            <mxPoint x="1970" y="605" as="targetPoint" />
          </mxGeometry>
        </mxCell>
        <mxCell id="I-lvZOV8MtSqsDIcfmFb-135" value="Speech" style="ellipse;whiteSpace=wrap;html=1;fontSize=16;fontStyle=0" vertex="1" parent="1">
          <mxGeometry x="2020" y="645" width="90" height="50" as="geometry" />
        </mxCell>
        <mxCell id="I-lvZOV8MtSqsDIcfmFb-138" value="Live" style="ellipse;whiteSpace=wrap;html=1;fontSize=16;" vertex="1" parent="1">
          <mxGeometry x="2060" y="460" width="90" height="55" as="geometry" />
        </mxCell>
        <mxCell id="I-lvZOV8MtSqsDIcfmFb-139" value="Dance" style="ellipse;whiteSpace=wrap;html=1;fontSize=16;" vertex="1" parent="1">
          <mxGeometry x="1740" y="480" width="90" height="50" as="geometry" />
        </mxCell>
        <mxCell id="I-lvZOV8MtSqsDIcfmFb-140" style="rounded=0;orthogonalLoop=1;jettySize=auto;html=1;exitX=1;exitY=1;exitDx=0;exitDy=0;entryX=0;entryY=0.25;entryDx=0;entryDy=0;strokeColor=default;endArrow=none;endFill=0;" edge="1" parent="1" source="I-lvZOV8MtSqsDIcfmFb-139">
          <mxGeometry relative="1" as="geometry">
            <mxPoint x="1795" y="625" as="sourcePoint" />
            <mxPoint x="1880" y="560" as="targetPoint" />
          </mxGeometry>
        </mxCell>
        <mxCell id="I-lvZOV8MtSqsDIcfmFb-143" style="rounded=0;orthogonalLoop=1;jettySize=auto;html=1;exitX=0;exitY=1;exitDx=0;exitDy=0;entryX=0.75;entryY=0;entryDx=0;entryDy=0;strokeColor=default;endArrow=none;endFill=0;" edge="1" parent="1" source="I-lvZOV8MtSqsDIcfmFb-138">
          <mxGeometry relative="1" as="geometry">
            <mxPoint x="1830" y="605" as="sourcePoint" />
            <mxPoint x="1970" y="545" as="targetPoint" />
          </mxGeometry>
        </mxCell>
        <mxCell id="I-lvZOV8MtSqsDIcfmFb-144" value="Instrumental" style="ellipse;whiteSpace=wrap;html=1;fontSize=16;" vertex="1" parent="1">
          <mxGeometry x="2080" y="530" width="90" height="50" as="geometry" />
        </mxCell>
        <mxCell id="I-lvZOV8MtSqsDIcfmFb-145" style="rounded=0;orthogonalLoop=1;jettySize=auto;html=1;exitX=0;exitY=0.5;exitDx=0;exitDy=0;entryX=1;entryY=0.25;entryDx=0;entryDy=0;strokeColor=default;endArrow=none;endFill=0;" edge="1" parent="1" source="I-lvZOV8MtSqsDIcfmFb-144">
          <mxGeometry relative="1" as="geometry">
            <mxPoint x="2075" y="525" as="sourcePoint" />
            <mxPoint x="2000" y="560" as="targetPoint" />
          </mxGeometry>
        </mxCell>
        <mxCell id="I-lvZOV8MtSqsDIcfmFb-146" value="Acoustic" style="ellipse;whiteSpace=wrap;html=1;fontSize=16;" vertex="1" parent="1">
          <mxGeometry x="2080" y="600" width="90" height="50" as="geometry" />
        </mxCell>
        <mxCell id="I-lvZOV8MtSqsDIcfmFb-147" style="rounded=0;orthogonalLoop=1;jettySize=auto;html=1;exitX=0;exitY=0;exitDx=0;exitDy=0;entryX=1;entryY=0.75;entryDx=0;entryDy=0;strokeColor=default;endArrow=none;endFill=0;" edge="1" parent="1" source="I-lvZOV8MtSqsDIcfmFb-146">
          <mxGeometry relative="1" as="geometry">
            <mxPoint x="2090" y="560" as="sourcePoint" />
            <mxPoint x="2000" y="590" as="targetPoint" />
          </mxGeometry>
        </mxCell>
        <mxCell id="I-lvZOV8MtSqsDIcfmFb-148" value="Location" style="ellipse;whiteSpace=wrap;html=1;fontSize=16;" vertex="1" parent="1">
          <mxGeometry x="1010" y="730" width="90" height="50" as="geometry" />
        </mxCell>
        <mxCell id="I-lvZOV8MtSqsDIcfmFb-150" style="rounded=0;orthogonalLoop=1;jettySize=auto;html=1;exitX=0;exitY=0.5;exitDx=0;exitDy=0;entryX=0.75;entryY=1;entryDx=0;entryDy=0;strokeColor=default;endArrow=none;endFill=0;" edge="1" parent="1" source="I-lvZOV8MtSqsDIcfmFb-148" target="I-lvZOV8MtSqsDIcfmFb-28">
          <mxGeometry relative="1" as="geometry">
            <mxPoint x="990" y="595" as="sourcePoint" />
            <mxPoint x="910" y="600" as="targetPoint" />
          </mxGeometry>
        </mxCell>
        <mxCell id="I-lvZOV8MtSqsDIcfmFb-153" value="Valence" style="ellipse;whiteSpace=wrap;html=1;fontSize=16;" vertex="1" parent="1">
          <mxGeometry x="1710" y="540" width="90" height="50" as="geometry" />
        </mxCell>
        <mxCell id="I-lvZOV8MtSqsDIcfmFb-154" style="rounded=0;orthogonalLoop=1;jettySize=auto;html=1;exitX=1;exitY=0.5;exitDx=0;exitDy=0;entryX=0;entryY=0.5;entryDx=0;entryDy=0;strokeColor=default;endArrow=none;endFill=0;" edge="1" parent="1" source="I-lvZOV8MtSqsDIcfmFb-153">
          <mxGeometry relative="1" as="geometry">
            <mxPoint x="1810" y="545" as="sourcePoint" />
            <mxPoint x="1880" y="575" as="targetPoint" />
          </mxGeometry>
        </mxCell>
        <mxCell id="I-lvZOV8MtSqsDIcfmFb-155" value="BPM" style="ellipse;whiteSpace=wrap;html=1;fontSize=16;" vertex="1" parent="1">
          <mxGeometry x="1710" y="600" width="90" height="50" as="geometry" />
        </mxCell>
        <mxCell id="I-lvZOV8MtSqsDIcfmFb-156" style="rounded=0;orthogonalLoop=1;jettySize=auto;html=1;exitX=1;exitY=0;exitDx=0;exitDy=0;entryX=0;entryY=0.75;entryDx=0;entryDy=0;strokeColor=default;endArrow=none;endFill=0;" edge="1" parent="1" source="I-lvZOV8MtSqsDIcfmFb-155">
          <mxGeometry relative="1" as="geometry">
            <mxPoint x="1810" y="585" as="sourcePoint" />
            <mxPoint x="1880" y="590" as="targetPoint" />
          </mxGeometry>
        </mxCell>
        <mxCell id="5j9Tdw26XCqUhP6ib2Jm-15" value="&lt;font style=&quot;font-size: 18px;&quot;&gt;Subscriber&lt;/font&gt;" style="shape=rhombus;perimeter=rhombusPerimeter;whiteSpace=wrap;html=1;align=center;" vertex="1" parent="1">
          <mxGeometry x="475" y="575" width="120" height="60" as="geometry" />
        </mxCell>
        <mxCell id="5j9Tdw26XCqUhP6ib2Jm-22" value="&lt;font style=&quot;font-size: 18px;&quot;&gt;Contains Tracks&lt;/font&gt;" style="shape=rhombus;perimeter=rhombusPerimeter;whiteSpace=wrap;html=1;align=center;" vertex="1" parent="1">
          <mxGeometry x="1500" y="160" width="200" height="60" as="geometry" />
        </mxCell>
        <mxCell id="5j9Tdw26XCqUhP6ib2Jm-23" value="&lt;font style=&quot;font-size: 18px;&quot;&gt;Featured Artists &lt;br&gt;and Producers&lt;/font&gt;" style="shape=rhombus;perimeter=rhombusPerimeter;whiteSpace=wrap;html=1;align=center;" vertex="1" parent="1">
          <mxGeometry x="980" y="150" width="200" height="80" as="geometry" />
        </mxCell>
        <mxCell id="5j9Tdw26XCqUhP6ib2Jm-25" value="&lt;font style=&quot;font-size: 18px;&quot;&gt;Followed&lt;/font&gt;" style="shape=rhombus;perimeter=rhombusPerimeter;whiteSpace=wrap;html=1;align=center;" vertex="1" parent="1">
          <mxGeometry x="775" y="360" width="120" height="60" as="geometry" />
        </mxCell>
        <mxCell id="5j9Tdw26XCqUhP6ib2Jm-30" value="" style="edgeStyle=elbowEdgeStyle;fontSize=12;html=1;endArrow=ERzeroToMany;endFill=1;rounded=0;movable=1;resizable=1;rotatable=1;deletable=1;editable=1;locked=0;connectable=1;elbow=vertical;entryX=0.5;entryY=1;entryDx=0;entryDy=0;exitX=0.5;exitY=0;exitDx=0;exitDy=0;endSize=10;" edge="1" parent="1" source="5j9Tdw26XCqUhP6ib2Jm-25" target="I-lvZOV8MtSqsDIcfmFb-85">
          <mxGeometry width="100" height="100" relative="1" as="geometry">
            <mxPoint x="680" y="400" as="sourcePoint" />
            <mxPoint x="750" y="270" as="targetPoint" />
          </mxGeometry>
        </mxCell>
        <mxCell id="5j9Tdw26XCqUhP6ib2Jm-33" value="" style="edgeStyle=elbowEdgeStyle;fontSize=12;html=1;endArrow=ERzeroToMany;endFill=1;rounded=0;movable=1;resizable=1;rotatable=1;deletable=1;editable=1;locked=0;connectable=1;elbow=vertical;exitX=0.5;exitY=1;exitDx=0;exitDy=0;endSize=10;entryX=0.5;entryY=0;entryDx=0;entryDy=0;" edge="1" parent="1" source="5j9Tdw26XCqUhP6ib2Jm-25" target="I-lvZOV8MtSqsDIcfmFb-28">
          <mxGeometry width="100" height="100" relative="1" as="geometry">
            <mxPoint x="910" y="375" as="sourcePoint" />
            <mxPoint x="835" y="570" as="targetPoint" />
          </mxGeometry>
        </mxCell>
        <mxCell id="5j9Tdw26XCqUhP6ib2Jm-37" value="" style="edgeStyle=entityRelationEdgeStyle;fontSize=12;html=1;endArrow=ERzeroToMany;endFill=1;rounded=0;elbow=vertical;exitX=1;exitY=0.5;exitDx=0;exitDy=0;endSize=10;entryX=0;entryY=0.5;entryDx=0;entryDy=0;" edge="1" parent="1" source="5j9Tdw26XCqUhP6ib2Jm-15" target="I-lvZOV8MtSqsDIcfmFb-28">
          <mxGeometry width="100" height="100" relative="1" as="geometry">
            <mxPoint x="1150" y="615" as="sourcePoint" />
            <mxPoint x="710" y="560" as="targetPoint" />
          </mxGeometry>
        </mxCell>
        <mxCell id="5j9Tdw26XCqUhP6ib2Jm-38" value="" style="edgeStyle=entityRelationEdgeStyle;fontSize=12;html=1;endArrow=ERone;endFill=1;rounded=0;elbow=vertical;entryX=1;entryY=0.5;entryDx=0;entryDy=0;exitX=0;exitY=0.5;exitDx=0;exitDy=0;endSize=12;" edge="1" parent="1" source="5j9Tdw26XCqUhP6ib2Jm-15" target="I-lvZOV8MtSqsDIcfmFb-10">
          <mxGeometry width="100" height="100" relative="1" as="geometry">
            <mxPoint x="525" y="840" as="sourcePoint" />
            <mxPoint x="420" y="840" as="targetPoint" />
            <Array as="points">
              <mxPoint x="750" y="795" />
              <mxPoint x="540" y="905" />
              <mxPoint x="530" y="845" />
            </Array>
          </mxGeometry>
        </mxCell>
        <mxCell id="5j9Tdw26XCqUhP6ib2Jm-40" value="" style="edgeStyle=elbowEdgeStyle;fontSize=12;html=1;endArrow=ERzeroToMany;endFill=1;rounded=0;movable=1;resizable=1;rotatable=1;deletable=1;editable=1;locked=0;connectable=1;elbow=vertical;exitX=0.5;exitY=1;exitDx=0;exitDy=0;endSize=10;entryX=0.145;entryY=0.029;entryDx=0;entryDy=0;entryPerimeter=0;" edge="1" parent="1" source="5j9Tdw26XCqUhP6ib2Jm-17" target="I-lvZOV8MtSqsDIcfmFb-28">
          <mxGeometry width="100" height="100" relative="1" as="geometry">
            <mxPoint x="605" y="400" as="sourcePoint" />
            <mxPoint x="605" y="555" as="targetPoint" />
          </mxGeometry>
        </mxCell>
        <mxCell id="5j9Tdw26XCqUhP6ib2Jm-41" value="" style="edgeStyle=elbowEdgeStyle;fontSize=12;html=1;endArrow=ERone;endFill=1;rounded=0;elbow=vertical;endSize=10;entryX=0.5;entryY=1;entryDx=0;entryDy=0;exitX=0.5;exitY=0;exitDx=0;exitDy=0;" edge="1" parent="1" source="5j9Tdw26XCqUhP6ib2Jm-17" target="I-lvZOV8MtSqsDIcfmFb-4">
          <mxGeometry width="100" height="100" relative="1" as="geometry">
            <mxPoint x="240" y="400" as="sourcePoint" />
            <mxPoint x="340" y="300" as="targetPoint" />
          </mxGeometry>
        </mxCell>
        <mxCell id="5j9Tdw26XCqUhP6ib2Jm-44" value="" style="edgeStyle=entityRelationEdgeStyle;fontSize=12;html=1;endArrow=ERoneToMany;rounded=0;elbow=vertical;entryX=1;entryY=0.5;entryDx=0;entryDy=0;exitX=0;exitY=0.5;exitDx=0;exitDy=0;endSize=10;" edge="1" parent="1" source="5j9Tdw26XCqUhP6ib2Jm-23" target="I-lvZOV8MtSqsDIcfmFb-85">
          <mxGeometry width="100" height="100" relative="1" as="geometry">
            <mxPoint x="1120" y="320" as="sourcePoint" />
            <mxPoint x="950" y="280" as="targetPoint" />
          </mxGeometry>
        </mxCell>
        <mxCell id="5j9Tdw26XCqUhP6ib2Jm-45" value="" style="edgeStyle=entityRelationEdgeStyle;fontSize=12;html=1;endArrow=ERzeroToMany;endFill=1;rounded=0;elbow=vertical;exitX=1;exitY=0.5;exitDx=0;exitDy=0;entryX=0;entryY=0.5;entryDx=0;entryDy=0;endSize=10;" edge="1" parent="1" source="5j9Tdw26XCqUhP6ib2Jm-23" target="I-lvZOV8MtSqsDIcfmFb-94">
          <mxGeometry width="100" height="100" relative="1" as="geometry">
            <mxPoint x="1200" y="430" as="sourcePoint" />
            <mxPoint x="1300" y="330" as="targetPoint" />
          </mxGeometry>
        </mxCell>
        <mxCell id="5j9Tdw26XCqUhP6ib2Jm-46" value="" style="edgeStyle=entityRelationEdgeStyle;fontSize=12;html=1;endArrow=ERone;endFill=1;rounded=0;elbow=vertical;entryX=1;entryY=0.5;entryDx=0;entryDy=0;exitX=0;exitY=0.5;exitDx=0;exitDy=0;endSize=11;" edge="1" parent="1" source="5j9Tdw26XCqUhP6ib2Jm-22" target="I-lvZOV8MtSqsDIcfmFb-94">
          <mxGeometry width="100" height="100" relative="1" as="geometry">
            <mxPoint x="1540" y="430" as="sourcePoint" />
            <mxPoint x="1410" y="260" as="targetPoint" />
          </mxGeometry>
        </mxCell>
        <mxCell id="5j9Tdw26XCqUhP6ib2Jm-47" value="" style="edgeStyle=entityRelationEdgeStyle;fontSize=12;html=1;endArrow=ERoneToMany;rounded=0;elbow=vertical;entryX=0;entryY=0.5;entryDx=0;entryDy=0;exitX=1;exitY=0.5;exitDx=0;exitDy=0;endSize=11;" edge="1" parent="1" source="5j9Tdw26XCqUhP6ib2Jm-22" target="I-lvZOV8MtSqsDIcfmFb-110">
          <mxGeometry width="100" height="100" relative="1" as="geometry">
            <mxPoint x="1540" y="430" as="sourcePoint" />
            <mxPoint x="1640" y="330" as="targetPoint" />
          </mxGeometry>
        </mxCell>
        <mxCell id="5j9Tdw26XCqUhP6ib2Jm-48" value="" style="edgeStyle=elbowEdgeStyle;fontSize=12;html=1;endArrow=ERone;endFill=1;rounded=0;elbow=vertical;endSize=11;entryX=0.5;entryY=1;entryDx=0;entryDy=0;exitX=0.5;exitY=0;exitDx=0;exitDy=0;" edge="1" parent="1" target="I-lvZOV8MtSqsDIcfmFb-110">
          <mxGeometry width="100" height="100" relative="1" as="geometry">
            <mxPoint x="1940" y="370" as="sourcePoint" />
            <mxPoint x="1490" y="250" as="targetPoint" />
          </mxGeometry>
        </mxCell>
        <mxCell id="5j9Tdw26XCqUhP6ib2Jm-49" value="" style="edgeStyle=elbowEdgeStyle;fontSize=12;html=1;endArrow=ERone;endFill=1;rounded=0;elbow=vertical;endSize=11;entryX=0.5;entryY=0;entryDx=0;entryDy=0;exitX=0.5;exitY=1;exitDx=0;exitDy=0;" edge="1" parent="1">
          <mxGeometry width="100" height="100" relative="1" as="geometry">
            <mxPoint x="1940" y="430" as="sourcePoint" />
            <mxPoint x="1940" y="545" as="targetPoint" />
          </mxGeometry>
        </mxCell>
        <mxCell id="-pSOMWij31oOQpejVPaG-1" value="&lt;font style=&quot;font-size: 19px;&quot;&gt;Songs&amp;nbsp;Liked&lt;/font&gt;" style="shape=rhombus;perimeter=rhombusPerimeter;whiteSpace=wrap;html=1;align=center;" vertex="1" parent="1">
          <mxGeometry x="1470" y="435" width="230" height="60" as="geometry" />
        </mxCell>
        <mxCell id="-pSOMWij31oOQpejVPaG-2" value="" style="edgeStyle=elbowEdgeStyle;fontSize=12;html=1;endArrow=ERzeroToMany;endFill=1;rounded=0;movable=1;resizable=1;rotatable=1;deletable=1;editable=1;locked=0;connectable=1;elbow=vertical;entryX=0.157;entryY=1.037;entryDx=0;entryDy=0;exitX=0.5;exitY=0;exitDx=0;exitDy=0;endSize=10;entryPerimeter=0;" edge="1" parent="1" source="-pSOMWij31oOQpejVPaG-1" target="I-lvZOV8MtSqsDIcfmFb-110">
          <mxGeometry width="100" height="100" relative="1" as="geometry">
            <mxPoint x="845" y="370" as="sourcePoint" />
            <mxPoint x="845" y="230" as="targetPoint" />
          </mxGeometry>
        </mxCell>
        <mxCell id="-pSOMWij31oOQpejVPaG-4" value="" style="edgeStyle=elbowEdgeStyle;fontSize=12;html=1;endArrow=ERzeroToMany;endFill=1;rounded=0;movable=1;resizable=1;rotatable=1;deletable=1;editable=1;locked=0;connectable=1;elbow=vertical;entryX=0.906;entryY=-0.011;entryDx=0;entryDy=0;exitX=0.5;exitY=1;exitDx=0;exitDy=0;endSize=10;entryPerimeter=0;" edge="1" parent="1" source="-pSOMWij31oOQpejVPaG-1" target="I-lvZOV8MtSqsDIcfmFb-28">
          <mxGeometry width="100" height="100" relative="1" as="geometry">
            <mxPoint x="1100" y="480" as="sourcePoint" />
            <mxPoint x="1270" y="340" as="targetPoint" />
          </mxGeometry>
        </mxCell>
        <mxCell id="-pSOMWij31oOQpejVPaG-23" value="&lt;font style=&quot;font-size: 14px;&quot;&gt;Song&lt;br style=&quot;border-color: var(--border-color);&quot;&gt;Metadata&lt;/font&gt;" style="shape=ext;margin=3;double=1;whiteSpace=wrap;html=1;align=center;" vertex="1" parent="1">
          <mxGeometry x="1880" y="545" width="120" height="65" as="geometry" />
        </mxCell>
        <mxCell id="-pSOMWij31oOQpejVPaG-24" value="password" style="ellipse;whiteSpace=wrap;html=1;fontSize=16;" vertex="1" parent="1">
          <mxGeometry x="560" y="695" width="90" height="50" as="geometry" />
        </mxCell>
        <mxCell id="-pSOMWij31oOQpejVPaG-25" style="rounded=0;orthogonalLoop=1;jettySize=auto;html=1;exitX=1;exitY=0.5;exitDx=0;exitDy=0;strokeColor=default;endArrow=none;endFill=0;entryX=0;entryY=1;entryDx=0;entryDy=0;" edge="1" parent="1" source="-pSOMWij31oOQpejVPaG-24" target="I-lvZOV8MtSqsDIcfmFb-28">
          <mxGeometry relative="1" as="geometry">
            <mxPoint x="785" y="775" as="sourcePoint" />
            <mxPoint x="845" y="645" as="targetPoint" />
          </mxGeometry>
        </mxCell>
        <mxCell id="-pSOMWij31oOQpejVPaG-26" value="&lt;font style=&quot;font-size: 18px;&quot;&gt;has detail&lt;/font&gt;" style="shape=rhombus;double=1;perimeter=rhombusPerimeter;whiteSpace=wrap;html=1;align=center;" vertex="1" parent="1">
          <mxGeometry x="1880" y="370" width="120" height="60" as="geometry" />
        </mxCell>
        <mxCell id="-pSOMWij31oOQpejVPaG-28" value="Genre" style="ellipse;whiteSpace=wrap;html=1;fontSize=16;" vertex="1" parent="1">
          <mxGeometry x="925" y="50" width="90" height="50" as="geometry" />
        </mxCell>
        <mxCell id="-pSOMWij31oOQpejVPaG-29" style="rounded=0;orthogonalLoop=1;jettySize=auto;html=1;exitX=0.5;exitY=1;exitDx=0;exitDy=0;entryX=0.75;entryY=0;entryDx=0;entryDy=0;endArrow=none;endFill=0;" edge="1" parent="1" source="-pSOMWij31oOQpejVPaG-28" target="I-lvZOV8MtSqsDIcfmFb-85">
          <mxGeometry relative="1" as="geometry">
            <mxPoint x="845" y="110" as="sourcePoint" />
            <mxPoint x="845" y="170" as="targetPoint" />
          </mxGeometry>
        </mxCell>
        <mxCell id="ZKBfEbNPUlb2_5w0Rjn4-1" value="Duration" style="ellipse;whiteSpace=wrap;html=1;fontSize=16;" vertex="1" parent="1">
          <mxGeometry x="2090" y="230" width="90" height="50" as="geometry" />
        </mxCell>
        <mxCell id="ZKBfEbNPUlb2_5w0Rjn4-2" style="rounded=0;orthogonalLoop=1;jettySize=auto;html=1;exitX=0;exitY=0.5;exitDx=0;exitDy=0;entryX=1;entryY=1;entryDx=0;entryDy=0;strokeColor=default;endArrow=none;endFill=0;" edge="1" parent="1" source="ZKBfEbNPUlb2_5w0Rjn4-1" target="I-lvZOV8MtSqsDIcfmFb-110">
          <mxGeometry relative="1" as="geometry">
            <mxPoint x="2090" y="585" as="sourcePoint" />
            <mxPoint x="2010" y="585" as="targetPoint" />
          </mxGeometry>
        </mxCell>
        <mxCell id="DY7iqcXMQVf45bziDd9m-1" value="Creator Of" style="text;html=1;strokeColor=none;fillColor=none;align=center;verticalAlign=middle;whiteSpace=wrap;rounded=0;" vertex="1" parent="1">
          <mxGeometry x="920" y="160" width="60" height="30" as="geometry" />
        </mxCell>
        <mxCell id="DY7iqcXMQVf45bziDd9m-2" value="&amp;nbsp;Created By" style="text;html=1;strokeColor=none;fillColor=none;align=center;verticalAlign=middle;whiteSpace=wrap;rounded=0;" vertex="1" parent="1">
          <mxGeometry x="1160" y="160" width="70" height="30" as="geometry" />
        </mxCell>
        <mxCell id="DY7iqcXMQVf45bziDd9m-3" value="Container Of" style="text;html=1;strokeColor=none;fillColor=none;align=center;verticalAlign=middle;whiteSpace=wrap;rounded=0;" vertex="1" parent="1">
          <mxGeometry x="1380" y="160" width="120" height="30" as="geometry" />
        </mxCell>
        <mxCell id="DY7iqcXMQVf45bziDd9m-4" value="Contained In" style="text;html=1;strokeColor=none;fillColor=none;align=center;verticalAlign=middle;whiteSpace=wrap;rounded=0;" vertex="1" parent="1">
          <mxGeometry x="1730" y="160" width="80" height="30" as="geometry" />
        </mxCell>
        <mxCell id="DY7iqcXMQVf45bziDd9m-5" value="Follower Of" style="text;html=1;strokeColor=none;fillColor=none;align=center;verticalAlign=middle;whiteSpace=wrap;rounded=0;" vertex="1" parent="1">
          <mxGeometry x="835" y="440" width="60" height="30" as="geometry" />
        </mxCell>
        <mxCell id="DY7iqcXMQVf45bziDd9m-6" value="Followed By" style="text;html=1;strokeColor=none;fillColor=none;align=center;verticalAlign=middle;whiteSpace=wrap;rounded=0;" vertex="1" parent="1">
          <mxGeometry x="840" y="280" width="60" height="30" as="geometry" />
        </mxCell>
        <mxCell id="DY7iqcXMQVf45bziDd9m-7" value="Liker Of" style="text;html=1;strokeColor=none;fillColor=none;align=center;verticalAlign=middle;whiteSpace=wrap;rounded=0;" vertex="1" parent="1">
          <mxGeometry x="1165" y="495" width="60" height="30" as="geometry" />
        </mxCell>
        <mxCell id="DY7iqcXMQVf45bziDd9m-8" value="Liked By" style="text;html=1;strokeColor=none;fillColor=none;align=center;verticalAlign=middle;whiteSpace=wrap;rounded=0;" vertex="1" parent="1">
          <mxGeometry x="1760" y="290" width="60" height="30" as="geometry" />
        </mxCell>
        <mxCell id="DY7iqcXMQVf45bziDd9m-9" value="Details Of" style="text;html=1;strokeColor=none;fillColor=none;align=center;verticalAlign=middle;whiteSpace=wrap;rounded=0;" vertex="1" parent="1">
          <mxGeometry x="1950" y="290" width="60" height="30" as="geometry" />
        </mxCell>
        <mxCell id="DY7iqcXMQVf45bziDd9m-10" value="&amp;nbsp;Detail For" style="text;html=1;strokeColor=none;fillColor=none;align=center;verticalAlign=middle;whiteSpace=wrap;rounded=0;" vertex="1" parent="1">
          <mxGeometry x="1950" y="450" width="60" height="30" as="geometry" />
        </mxCell>
        <mxCell id="DY7iqcXMQVf45bziDd9m-12" value="Subscriber Of" style="text;html=1;strokeColor=none;fillColor=none;align=center;verticalAlign=middle;whiteSpace=wrap;rounded=0;" vertex="1" parent="1">
          <mxGeometry x="640" y="560" width="60" height="30" as="geometry" />
        </mxCell>
        <mxCell id="DY7iqcXMQVf45bziDd9m-13" value="Subscribed By" style="text;html=1;strokeColor=none;fillColor=none;align=center;verticalAlign=middle;whiteSpace=wrap;rounded=0;" vertex="1" parent="1">
          <mxGeometry x="380" y="562.5" width="60" height="30" as="geometry" />
        </mxCell>
        <mxCell id="DY7iqcXMQVf45bziDd9m-14" value="Nationality Of" style="text;html=1;strokeColor=none;fillColor=none;align=center;verticalAlign=middle;whiteSpace=wrap;rounded=0;" vertex="1" parent="1">
          <mxGeometry x="400" y="240" width="60" height="30" as="geometry" />
        </mxCell>
        <mxCell id="DY7iqcXMQVf45bziDd9m-16" value="Belongs to" style="text;html=1;strokeColor=none;fillColor=none;align=center;verticalAlign=middle;whiteSpace=wrap;rounded=0;" vertex="1" parent="1">
          <mxGeometry x="650" y="450" width="60" height="30" as="geometry" />
        </mxCell>
        <mxCell id="vrqvHtQ_zO4Zx_AFnR73-1" value="&lt;font style=&quot;font-size: 20px;&quot;&gt;AlbumLiked&lt;/font&gt;" style="shape=rhombus;perimeter=rhombusPerimeter;whiteSpace=wrap;html=1;align=center;" vertex="1" parent="1">
          <mxGeometry x="990" y="310" width="230" height="60" as="geometry" />
        </mxCell>
        <mxCell id="vrqvHtQ_zO4Zx_AFnR73-2" value="" style="edgeStyle=elbowEdgeStyle;fontSize=12;html=1;endArrow=ERzeroToMany;endFill=1;rounded=0;movable=1;resizable=1;rotatable=1;deletable=1;editable=1;locked=0;connectable=1;elbow=vertical;entryX=0.25;entryY=1;entryDx=0;entryDy=0;exitX=0.5;exitY=0;exitDx=0;exitDy=0;endSize=10;" edge="1" parent="1" source="vrqvHtQ_zO4Zx_AFnR73-1" target="I-lvZOV8MtSqsDIcfmFb-94">
          <mxGeometry width="100" height="100" relative="1" as="geometry">
            <mxPoint x="1650" y="445" as="sourcePoint" />
            <mxPoint x="1909" y="232" as="targetPoint" />
          </mxGeometry>
        </mxCell>
        <mxCell id="vrqvHtQ_zO4Zx_AFnR73-3" value="" style="edgeStyle=elbowEdgeStyle;fontSize=12;html=1;endArrow=ERzeroToMany;endFill=1;rounded=0;movable=1;resizable=1;rotatable=1;deletable=1;editable=1;locked=0;connectable=1;elbow=vertical;exitX=0.5;exitY=1;exitDx=0;exitDy=0;endSize=10;entryX=0.75;entryY=0;entryDx=0;entryDy=0;" edge="1" parent="1" source="vrqvHtQ_zO4Zx_AFnR73-1" target="I-lvZOV8MtSqsDIcfmFb-28">
          <mxGeometry width="100" height="100" relative="1" as="geometry">
            <mxPoint x="1650" y="505" as="sourcePoint" />
            <mxPoint x="850" y="570" as="targetPoint" />
          </mxGeometry>
        </mxCell>
        <mxCell id="vrqvHtQ_zO4Zx_AFnR73-5" value="Liker Of" style="text;html=1;strokeColor=none;fillColor=none;align=center;verticalAlign=middle;whiteSpace=wrap;rounded=0;" vertex="1" parent="1">
          <mxGeometry x="955" y="440" width="60" height="30" as="geometry" />
        </mxCell>
        <mxCell id="vrqvHtQ_zO4Zx_AFnR73-6" value="Liked By" style="text;html=1;strokeColor=none;fillColor=none;align=center;verticalAlign=middle;whiteSpace=wrap;rounded=0;" vertex="1" parent="1">
          <mxGeometry x="1160" y="230" width="60" height="30" as="geometry" />
        </mxCell>
      </root>
    </mxGraphModel>
  </diagram>
  <diagram id="TD0SVTaRBAmjQNANlmxd" name="관계형 스키마">
    <mxGraphModel grid="1" page="1" gridSize="10" guides="1" tooltips="1" connect="1" arrows="1" fold="1" pageScale="1" pageWidth="827" pageHeight="1169" math="0" shadow="0">
      <root>
        <mxCell id="0" />
        <mxCell id="1" parent="0" />
        <mxCell id="WSu7LC8AcZz-CQn59D3N-1" value="Country&amp;nbsp;" style="shape=table;startSize=30;container=1;collapsible=1;childLayout=tableLayout;fixedRows=1;rowLines=0;fontStyle=1;align=center;resizeLast=1;html=1;" vertex="1" parent="1">
          <mxGeometry x="70" y="570" width="180" height="150" as="geometry" />
        </mxCell>
        <mxCell id="WSu7LC8AcZz-CQn59D3N-2" value="" style="shape=tableRow;horizontal=0;startSize=0;swimlaneHead=0;swimlaneBody=0;fillColor=none;collapsible=0;dropTarget=0;points=[[0,0.5],[1,0.5]];portConstraint=eastwest;top=0;left=0;right=0;bottom=1;" vertex="1" parent="WSu7LC8AcZz-CQn59D3N-1">
          <mxGeometry y="30" width="180" height="30" as="geometry" />
        </mxCell>
        <mxCell id="WSu7LC8AcZz-CQn59D3N-3" value="PK" style="shape=partialRectangle;connectable=0;fillColor=none;top=0;left=0;bottom=0;right=0;fontStyle=1;overflow=hidden;whiteSpace=wrap;html=1;" vertex="1" parent="WSu7LC8AcZz-CQn59D3N-2">
          <mxGeometry width="30" height="30" as="geometry">
            <mxRectangle width="30" height="30" as="alternateBounds" />
          </mxGeometry>
        </mxCell>
        <mxCell id="WSu7LC8AcZz-CQn59D3N-4" value="CountryID" style="shape=partialRectangle;connectable=0;fillColor=none;top=0;left=0;bottom=0;right=0;align=left;spacingLeft=6;fontStyle=5;overflow=hidden;whiteSpace=wrap;html=1;" vertex="1" parent="WSu7LC8AcZz-CQn59D3N-2">
          <mxGeometry x="30" width="150" height="30" as="geometry">
            <mxRectangle width="150" height="30" as="alternateBounds" />
          </mxGeometry>
        </mxCell>
        <mxCell id="WSu7LC8AcZz-CQn59D3N-5" value="" style="shape=tableRow;horizontal=0;startSize=0;swimlaneHead=0;swimlaneBody=0;fillColor=none;collapsible=0;dropTarget=0;points=[[0,0.5],[1,0.5]];portConstraint=eastwest;top=0;left=0;right=0;bottom=0;" vertex="1" parent="WSu7LC8AcZz-CQn59D3N-1">
          <mxGeometry y="60" width="180" height="30" as="geometry" />
        </mxCell>
        <mxCell id="WSu7LC8AcZz-CQn59D3N-6" value="" style="shape=partialRectangle;connectable=0;fillColor=none;top=0;left=0;bottom=0;right=0;editable=1;overflow=hidden;whiteSpace=wrap;html=1;" vertex="1" parent="WSu7LC8AcZz-CQn59D3N-5">
          <mxGeometry width="30" height="30" as="geometry">
            <mxRectangle width="30" height="30" as="alternateBounds" />
          </mxGeometry>
        </mxCell>
        <mxCell id="WSu7LC8AcZz-CQn59D3N-7" value="C_Name" style="shape=partialRectangle;connectable=0;fillColor=none;top=0;left=0;bottom=0;right=0;align=left;spacingLeft=6;overflow=hidden;whiteSpace=wrap;html=1;" vertex="1" parent="WSu7LC8AcZz-CQn59D3N-5">
          <mxGeometry x="30" width="150" height="30" as="geometry">
            <mxRectangle width="150" height="30" as="alternateBounds" />
          </mxGeometry>
        </mxCell>
        <mxCell id="WSu7LC8AcZz-CQn59D3N-8" value="" style="shape=tableRow;horizontal=0;startSize=0;swimlaneHead=0;swimlaneBody=0;fillColor=none;collapsible=0;dropTarget=0;points=[[0,0.5],[1,0.5]];portConstraint=eastwest;top=0;left=0;right=0;bottom=0;" vertex="1" parent="WSu7LC8AcZz-CQn59D3N-1">
          <mxGeometry y="90" width="180" height="30" as="geometry" />
        </mxCell>
        <mxCell id="WSu7LC8AcZz-CQn59D3N-9" value="" style="shape=partialRectangle;connectable=0;fillColor=none;top=0;left=0;bottom=0;right=0;editable=1;overflow=hidden;whiteSpace=wrap;html=1;" vertex="1" parent="WSu7LC8AcZz-CQn59D3N-8">
          <mxGeometry width="30" height="30" as="geometry">
            <mxRectangle width="30" height="30" as="alternateBounds" />
          </mxGeometry>
        </mxCell>
        <mxCell id="WSu7LC8AcZz-CQn59D3N-10" value="C_Code" style="shape=partialRectangle;connectable=0;fillColor=none;top=0;left=0;bottom=0;right=0;align=left;spacingLeft=6;overflow=hidden;whiteSpace=wrap;html=1;" vertex="1" parent="WSu7LC8AcZz-CQn59D3N-8">
          <mxGeometry x="30" width="150" height="30" as="geometry">
            <mxRectangle width="150" height="30" as="alternateBounds" />
          </mxGeometry>
        </mxCell>
        <mxCell id="WSu7LC8AcZz-CQn59D3N-11" value="" style="shape=tableRow;horizontal=0;startSize=0;swimlaneHead=0;swimlaneBody=0;fillColor=none;collapsible=0;dropTarget=0;points=[[0,0.5],[1,0.5]];portConstraint=eastwest;top=0;left=0;right=0;bottom=0;" vertex="1" parent="WSu7LC8AcZz-CQn59D3N-1">
          <mxGeometry y="120" width="180" height="30" as="geometry" />
        </mxCell>
        <mxCell id="WSu7LC8AcZz-CQn59D3N-12" value="" style="shape=partialRectangle;connectable=0;fillColor=none;top=0;left=0;bottom=0;right=0;editable=1;overflow=hidden;whiteSpace=wrap;html=1;" vertex="1" parent="WSu7LC8AcZz-CQn59D3N-11">
          <mxGeometry width="30" height="30" as="geometry">
            <mxRectangle width="30" height="30" as="alternateBounds" />
          </mxGeometry>
        </mxCell>
        <mxCell id="WSu7LC8AcZz-CQn59D3N-13" value="" style="shape=partialRectangle;connectable=0;fillColor=none;top=0;left=0;bottom=0;right=0;align=left;spacingLeft=6;overflow=hidden;whiteSpace=wrap;html=1;" vertex="1" parent="WSu7LC8AcZz-CQn59D3N-11">
          <mxGeometry x="30" width="150" height="30" as="geometry">
            <mxRectangle width="150" height="30" as="alternateBounds" />
          </mxGeometry>
        </mxCell>
        <mxCell id="WSu7LC8AcZz-CQn59D3N-33" value="Subscription" style="shape=table;startSize=30;container=1;collapsible=1;childLayout=tableLayout;fixedRows=1;rowLines=0;fontStyle=1;align=center;resizeLast=1;html=1;" vertex="1" parent="1">
          <mxGeometry x="950" y="550" width="180" height="210" as="geometry" />
        </mxCell>
        <mxCell id="WSu7LC8AcZz-CQn59D3N-34" value="" style="shape=tableRow;horizontal=0;startSize=0;swimlaneHead=0;swimlaneBody=0;fillColor=none;collapsible=0;dropTarget=0;points=[[0,0.5],[1,0.5]];portConstraint=eastwest;top=0;left=0;right=0;bottom=1;" vertex="1" parent="WSu7LC8AcZz-CQn59D3N-33">
          <mxGeometry y="30" width="180" height="30" as="geometry" />
        </mxCell>
        <mxCell id="WSu7LC8AcZz-CQn59D3N-35" value="PK" style="shape=partialRectangle;connectable=0;fillColor=none;top=0;left=0;bottom=0;right=0;fontStyle=1;overflow=hidden;whiteSpace=wrap;html=1;" vertex="1" parent="WSu7LC8AcZz-CQn59D3N-34">
          <mxGeometry width="30" height="30" as="geometry">
            <mxRectangle width="30" height="30" as="alternateBounds" />
          </mxGeometry>
        </mxCell>
        <mxCell id="WSu7LC8AcZz-CQn59D3N-36" value="SubID&amp;nbsp;" style="shape=partialRectangle;connectable=0;fillColor=none;top=0;left=0;bottom=0;right=0;align=left;spacingLeft=6;fontStyle=5;overflow=hidden;whiteSpace=wrap;html=1;" vertex="1" parent="WSu7LC8AcZz-CQn59D3N-34">
          <mxGeometry x="30" width="150" height="30" as="geometry">
            <mxRectangle width="150" height="30" as="alternateBounds" />
          </mxGeometry>
        </mxCell>
        <mxCell id="WSu7LC8AcZz-CQn59D3N-37" value="" style="shape=tableRow;horizontal=0;startSize=0;swimlaneHead=0;swimlaneBody=0;fillColor=none;collapsible=0;dropTarget=0;points=[[0,0.5],[1,0.5]];portConstraint=eastwest;top=0;left=0;right=0;bottom=0;" vertex="1" parent="WSu7LC8AcZz-CQn59D3N-33">
          <mxGeometry y="60" width="180" height="30" as="geometry" />
        </mxCell>
        <mxCell id="WSu7LC8AcZz-CQn59D3N-38" value="" style="shape=partialRectangle;connectable=0;fillColor=none;top=0;left=0;bottom=0;right=0;editable=1;overflow=hidden;whiteSpace=wrap;html=1;" vertex="1" parent="WSu7LC8AcZz-CQn59D3N-37">
          <mxGeometry width="30" height="30" as="geometry">
            <mxRectangle width="30" height="30" as="alternateBounds" />
          </mxGeometry>
        </mxCell>
        <mxCell id="WSu7LC8AcZz-CQn59D3N-39" value="Sub_Period" style="shape=partialRectangle;connectable=0;fillColor=none;top=0;left=0;bottom=0;right=0;align=left;spacingLeft=6;overflow=hidden;whiteSpace=wrap;html=1;" vertex="1" parent="WSu7LC8AcZz-CQn59D3N-37">
          <mxGeometry x="30" width="150" height="30" as="geometry">
            <mxRectangle width="150" height="30" as="alternateBounds" />
          </mxGeometry>
        </mxCell>
        <mxCell id="WSu7LC8AcZz-CQn59D3N-40" value="" style="shape=tableRow;horizontal=0;startSize=0;swimlaneHead=0;swimlaneBody=0;fillColor=none;collapsible=0;dropTarget=0;points=[[0,0.5],[1,0.5]];portConstraint=eastwest;top=0;left=0;right=0;bottom=0;" vertex="1" parent="WSu7LC8AcZz-CQn59D3N-33">
          <mxGeometry y="90" width="180" height="30" as="geometry" />
        </mxCell>
        <mxCell id="WSu7LC8AcZz-CQn59D3N-41" value="" style="shape=partialRectangle;connectable=0;fillColor=none;top=0;left=0;bottom=0;right=0;editable=1;overflow=hidden;whiteSpace=wrap;html=1;" vertex="1" parent="WSu7LC8AcZz-CQn59D3N-40">
          <mxGeometry width="30" height="30" as="geometry">
            <mxRectangle width="30" height="30" as="alternateBounds" />
          </mxGeometry>
        </mxCell>
        <mxCell id="WSu7LC8AcZz-CQn59D3N-42" value="Sub_StartDate" style="shape=partialRectangle;connectable=0;fillColor=none;top=0;left=0;bottom=0;right=0;align=left;spacingLeft=6;overflow=hidden;whiteSpace=wrap;html=1;" vertex="1" parent="WSu7LC8AcZz-CQn59D3N-40">
          <mxGeometry x="30" width="150" height="30" as="geometry">
            <mxRectangle width="150" height="30" as="alternateBounds" />
          </mxGeometry>
        </mxCell>
        <mxCell id="WSu7LC8AcZz-CQn59D3N-43" value="" style="shape=tableRow;horizontal=0;startSize=0;swimlaneHead=0;swimlaneBody=0;fillColor=none;collapsible=0;dropTarget=0;points=[[0,0.5],[1,0.5]];portConstraint=eastwest;top=0;left=0;right=0;bottom=0;" vertex="1" parent="WSu7LC8AcZz-CQn59D3N-33">
          <mxGeometry y="120" width="180" height="30" as="geometry" />
        </mxCell>
        <mxCell id="WSu7LC8AcZz-CQn59D3N-44" value="" style="shape=partialRectangle;connectable=0;fillColor=none;top=0;left=0;bottom=0;right=0;editable=1;overflow=hidden;whiteSpace=wrap;html=1;" vertex="1" parent="WSu7LC8AcZz-CQn59D3N-43">
          <mxGeometry width="30" height="30" as="geometry">
            <mxRectangle width="30" height="30" as="alternateBounds" />
          </mxGeometry>
        </mxCell>
        <mxCell id="WSu7LC8AcZz-CQn59D3N-45" value="SubType" style="shape=partialRectangle;connectable=0;fillColor=none;top=0;left=0;bottom=0;right=0;align=left;spacingLeft=6;overflow=hidden;whiteSpace=wrap;html=1;" vertex="1" parent="WSu7LC8AcZz-CQn59D3N-43">
          <mxGeometry x="30" width="150" height="30" as="geometry">
            <mxRectangle width="150" height="30" as="alternateBounds" />
          </mxGeometry>
        </mxCell>
        <mxCell id="WSu7LC8AcZz-CQn59D3N-81" style="shape=tableRow;horizontal=0;startSize=0;swimlaneHead=0;swimlaneBody=0;fillColor=none;collapsible=0;dropTarget=0;points=[[0,0.5],[1,0.5]];portConstraint=eastwest;top=0;left=0;right=0;bottom=0;" vertex="1" parent="WSu7LC8AcZz-CQn59D3N-33">
          <mxGeometry y="150" width="180" height="30" as="geometry" />
        </mxCell>
        <mxCell id="WSu7LC8AcZz-CQn59D3N-82" style="shape=partialRectangle;connectable=0;fillColor=none;top=0;left=0;bottom=0;right=0;editable=1;overflow=hidden;whiteSpace=wrap;html=1;" vertex="1" parent="WSu7LC8AcZz-CQn59D3N-81">
          <mxGeometry width="30" height="30" as="geometry">
            <mxRectangle width="30" height="30" as="alternateBounds" />
          </mxGeometry>
        </mxCell>
        <mxCell id="WSu7LC8AcZz-CQn59D3N-83" value="Listening_Limit" style="shape=partialRectangle;connectable=0;fillColor=none;top=0;left=0;bottom=0;right=0;align=left;spacingLeft=6;overflow=hidden;whiteSpace=wrap;html=1;" vertex="1" parent="WSu7LC8AcZz-CQn59D3N-81">
          <mxGeometry x="30" width="150" height="30" as="geometry">
            <mxRectangle width="150" height="30" as="alternateBounds" />
          </mxGeometry>
        </mxCell>
        <mxCell id="WSu7LC8AcZz-CQn59D3N-84" style="shape=tableRow;horizontal=0;startSize=0;swimlaneHead=0;swimlaneBody=0;fillColor=none;collapsible=0;dropTarget=0;points=[[0,0.5],[1,0.5]];portConstraint=eastwest;top=0;left=0;right=0;bottom=0;" vertex="1" parent="WSu7LC8AcZz-CQn59D3N-33">
          <mxGeometry y="180" width="180" height="30" as="geometry" />
        </mxCell>
        <mxCell id="WSu7LC8AcZz-CQn59D3N-85" style="shape=partialRectangle;connectable=0;fillColor=none;top=0;left=0;bottom=0;right=0;editable=1;overflow=hidden;whiteSpace=wrap;html=1;" vertex="1" parent="WSu7LC8AcZz-CQn59D3N-84">
          <mxGeometry width="30" height="30" as="geometry">
            <mxRectangle width="30" height="30" as="alternateBounds" />
          </mxGeometry>
        </mxCell>
        <mxCell id="WSu7LC8AcZz-CQn59D3N-86" value="Premium" style="shape=partialRectangle;connectable=0;fillColor=none;top=0;left=0;bottom=0;right=0;align=left;spacingLeft=6;overflow=hidden;whiteSpace=wrap;html=1;" vertex="1" parent="WSu7LC8AcZz-CQn59D3N-84">
          <mxGeometry x="30" width="150" height="30" as="geometry">
            <mxRectangle width="150" height="30" as="alternateBounds" />
          </mxGeometry>
        </mxCell>
        <mxCell id="WSu7LC8AcZz-CQn59D3N-46" value="" style="shape=tableRow;horizontal=0;startSize=0;swimlaneHead=0;swimlaneBody=0;fillColor=none;collapsible=0;dropTarget=0;points=[[0,0.5],[1,0.5]];portConstraint=eastwest;top=0;left=0;right=0;bottom=0;" vertex="1" parent="1">
          <mxGeometry x="60" y="350" width="180" height="30" as="geometry" />
        </mxCell>
        <mxCell id="WSu7LC8AcZz-CQn59D3N-47" value="" style="shape=partialRectangle;connectable=0;fillColor=none;top=0;left=0;bottom=0;right=0;editable=1;overflow=hidden;whiteSpace=wrap;html=1;" vertex="1" parent="1">
          <mxGeometry x="125" y="440" width="30" height="30" as="geometry">
            <mxRectangle width="30" height="30" as="alternateBounds" />
          </mxGeometry>
        </mxCell>
        <mxCell id="WSu7LC8AcZz-CQn59D3N-87" value="Users" style="shape=table;startSize=30;container=1;collapsible=1;childLayout=tableLayout;fixedRows=1;rowLines=0;fontStyle=1;align=center;resizeLast=1;html=1;" vertex="1" parent="1">
          <mxGeometry x="490" y="480" width="180" height="330" as="geometry" />
        </mxCell>
        <mxCell id="WSu7LC8AcZz-CQn59D3N-88" value="" style="shape=tableRow;horizontal=0;startSize=0;swimlaneHead=0;swimlaneBody=0;fillColor=none;collapsible=0;dropTarget=0;points=[[0,0.5],[1,0.5]];portConstraint=eastwest;top=0;left=0;right=0;bottom=1;" vertex="1" parent="WSu7LC8AcZz-CQn59D3N-87">
          <mxGeometry y="30" width="180" height="30" as="geometry" />
        </mxCell>
        <mxCell id="WSu7LC8AcZz-CQn59D3N-89" value="PK" style="shape=partialRectangle;connectable=0;fillColor=none;top=0;left=0;bottom=0;right=0;fontStyle=1;overflow=hidden;whiteSpace=wrap;html=1;" vertex="1" parent="WSu7LC8AcZz-CQn59D3N-88">
          <mxGeometry width="30" height="30" as="geometry">
            <mxRectangle width="30" height="30" as="alternateBounds" />
          </mxGeometry>
        </mxCell>
        <mxCell id="WSu7LC8AcZz-CQn59D3N-90" value="UserID&amp;nbsp;" style="shape=partialRectangle;connectable=0;fillColor=none;top=0;left=0;bottom=0;right=0;align=left;spacingLeft=6;fontStyle=5;overflow=hidden;whiteSpace=wrap;html=1;" vertex="1" parent="WSu7LC8AcZz-CQn59D3N-88">
          <mxGeometry x="30" width="150" height="30" as="geometry">
            <mxRectangle width="150" height="30" as="alternateBounds" />
          </mxGeometry>
        </mxCell>
        <mxCell id="WSu7LC8AcZz-CQn59D3N-91" value="" style="shape=tableRow;horizontal=0;startSize=0;swimlaneHead=0;swimlaneBody=0;fillColor=none;collapsible=0;dropTarget=0;points=[[0,0.5],[1,0.5]];portConstraint=eastwest;top=0;left=0;right=0;bottom=0;" vertex="1" parent="WSu7LC8AcZz-CQn59D3N-87">
          <mxGeometry y="60" width="180" height="30" as="geometry" />
        </mxCell>
        <mxCell id="WSu7LC8AcZz-CQn59D3N-92" value="" style="shape=partialRectangle;connectable=0;fillColor=none;top=0;left=0;bottom=0;right=0;editable=1;overflow=hidden;whiteSpace=wrap;html=1;" vertex="1" parent="WSu7LC8AcZz-CQn59D3N-91">
          <mxGeometry width="30" height="30" as="geometry">
            <mxRectangle width="30" height="30" as="alternateBounds" />
          </mxGeometry>
        </mxCell>
        <mxCell id="WSu7LC8AcZz-CQn59D3N-93" value="UserName" style="shape=partialRectangle;connectable=0;fillColor=none;top=0;left=0;bottom=0;right=0;align=left;spacingLeft=6;overflow=hidden;whiteSpace=wrap;html=1;" vertex="1" parent="WSu7LC8AcZz-CQn59D3N-91">
          <mxGeometry x="30" width="150" height="30" as="geometry">
            <mxRectangle width="150" height="30" as="alternateBounds" />
          </mxGeometry>
        </mxCell>
        <mxCell id="WSu7LC8AcZz-CQn59D3N-94" value="" style="shape=tableRow;horizontal=0;startSize=0;swimlaneHead=0;swimlaneBody=0;fillColor=none;collapsible=0;dropTarget=0;points=[[0,0.5],[1,0.5]];portConstraint=eastwest;top=0;left=0;right=0;bottom=0;" vertex="1" parent="WSu7LC8AcZz-CQn59D3N-87">
          <mxGeometry y="90" width="180" height="30" as="geometry" />
        </mxCell>
        <mxCell id="WSu7LC8AcZz-CQn59D3N-95" value="" style="shape=partialRectangle;connectable=0;fillColor=none;top=0;left=0;bottom=0;right=0;editable=1;overflow=hidden;whiteSpace=wrap;html=1;" vertex="1" parent="WSu7LC8AcZz-CQn59D3N-94">
          <mxGeometry width="30" height="30" as="geometry">
            <mxRectangle width="30" height="30" as="alternateBounds" />
          </mxGeometry>
        </mxCell>
        <mxCell id="WSu7LC8AcZz-CQn59D3N-96" value="password" style="shape=partialRectangle;connectable=0;fillColor=none;top=0;left=0;bottom=0;right=0;align=left;spacingLeft=6;overflow=hidden;whiteSpace=wrap;html=1;" vertex="1" parent="WSu7LC8AcZz-CQn59D3N-94">
          <mxGeometry x="30" width="150" height="30" as="geometry">
            <mxRectangle width="150" height="30" as="alternateBounds" />
          </mxGeometry>
        </mxCell>
        <mxCell id="WSu7LC8AcZz-CQn59D3N-97" value="" style="shape=tableRow;horizontal=0;startSize=0;swimlaneHead=0;swimlaneBody=0;fillColor=none;collapsible=0;dropTarget=0;points=[[0,0.5],[1,0.5]];portConstraint=eastwest;top=0;left=0;right=0;bottom=0;" vertex="1" parent="WSu7LC8AcZz-CQn59D3N-87">
          <mxGeometry y="120" width="180" height="30" as="geometry" />
        </mxCell>
        <mxCell id="WSu7LC8AcZz-CQn59D3N-98" value="" style="shape=partialRectangle;connectable=0;fillColor=none;top=0;left=0;bottom=0;right=0;editable=1;overflow=hidden;whiteSpace=wrap;html=1;" vertex="1" parent="WSu7LC8AcZz-CQn59D3N-97">
          <mxGeometry width="30" height="30" as="geometry">
            <mxRectangle width="30" height="30" as="alternateBounds" />
          </mxGeometry>
        </mxCell>
        <mxCell id="WSu7LC8AcZz-CQn59D3N-99" value="RealName" style="shape=partialRectangle;connectable=0;fillColor=none;top=0;left=0;bottom=0;right=0;align=left;spacingLeft=6;overflow=hidden;whiteSpace=wrap;html=1;" vertex="1" parent="WSu7LC8AcZz-CQn59D3N-97">
          <mxGeometry x="30" width="150" height="30" as="geometry">
            <mxRectangle width="150" height="30" as="alternateBounds" />
          </mxGeometry>
        </mxCell>
        <mxCell id="WSu7LC8AcZz-CQn59D3N-100" style="shape=tableRow;horizontal=0;startSize=0;swimlaneHead=0;swimlaneBody=0;fillColor=none;collapsible=0;dropTarget=0;points=[[0,0.5],[1,0.5]];portConstraint=eastwest;top=0;left=0;right=0;bottom=0;" vertex="1" parent="WSu7LC8AcZz-CQn59D3N-87">
          <mxGeometry y="150" width="180" height="30" as="geometry" />
        </mxCell>
        <mxCell id="WSu7LC8AcZz-CQn59D3N-101" style="shape=partialRectangle;connectable=0;fillColor=none;top=0;left=0;bottom=0;right=0;editable=1;overflow=hidden;whiteSpace=wrap;html=1;" vertex="1" parent="WSu7LC8AcZz-CQn59D3N-100">
          <mxGeometry width="30" height="30" as="geometry">
            <mxRectangle width="30" height="30" as="alternateBounds" />
          </mxGeometry>
        </mxCell>
        <mxCell id="WSu7LC8AcZz-CQn59D3N-102" value="Location" style="shape=partialRectangle;connectable=0;fillColor=none;top=0;left=0;bottom=0;right=0;align=left;spacingLeft=6;overflow=hidden;whiteSpace=wrap;html=1;" vertex="1" parent="WSu7LC8AcZz-CQn59D3N-100">
          <mxGeometry x="30" width="150" height="30" as="geometry">
            <mxRectangle width="150" height="30" as="alternateBounds" />
          </mxGeometry>
        </mxCell>
        <mxCell id="WSu7LC8AcZz-CQn59D3N-103" style="shape=tableRow;horizontal=0;startSize=0;swimlaneHead=0;swimlaneBody=0;fillColor=none;collapsible=0;dropTarget=0;points=[[0,0.5],[1,0.5]];portConstraint=eastwest;top=0;left=0;right=0;bottom=0;" vertex="1" parent="WSu7LC8AcZz-CQn59D3N-87">
          <mxGeometry y="180" width="180" height="30" as="geometry" />
        </mxCell>
        <mxCell id="WSu7LC8AcZz-CQn59D3N-104" style="shape=partialRectangle;connectable=0;fillColor=none;top=0;left=0;bottom=0;right=0;editable=1;overflow=hidden;whiteSpace=wrap;html=1;" vertex="1" parent="WSu7LC8AcZz-CQn59D3N-103">
          <mxGeometry width="30" height="30" as="geometry">
            <mxRectangle width="30" height="30" as="alternateBounds" />
          </mxGeometry>
        </mxCell>
        <mxCell id="WSu7LC8AcZz-CQn59D3N-105" value="Gender" style="shape=partialRectangle;connectable=0;fillColor=none;top=0;left=0;bottom=0;right=0;align=left;spacingLeft=6;overflow=hidden;whiteSpace=wrap;html=1;" vertex="1" parent="WSu7LC8AcZz-CQn59D3N-103">
          <mxGeometry x="30" width="150" height="30" as="geometry">
            <mxRectangle width="150" height="30" as="alternateBounds" />
          </mxGeometry>
        </mxCell>
        <mxCell id="WSu7LC8AcZz-CQn59D3N-106" style="shape=tableRow;horizontal=0;startSize=0;swimlaneHead=0;swimlaneBody=0;fillColor=none;collapsible=0;dropTarget=0;points=[[0,0.5],[1,0.5]];portConstraint=eastwest;top=0;left=0;right=0;bottom=0;" vertex="1" parent="WSu7LC8AcZz-CQn59D3N-87">
          <mxGeometry y="210" width="180" height="30" as="geometry" />
        </mxCell>
        <mxCell id="WSu7LC8AcZz-CQn59D3N-107" style="shape=partialRectangle;connectable=0;fillColor=none;top=0;left=0;bottom=0;right=0;editable=1;overflow=hidden;whiteSpace=wrap;html=1;" vertex="1" parent="WSu7LC8AcZz-CQn59D3N-106">
          <mxGeometry width="30" height="30" as="geometry">
            <mxRectangle width="30" height="30" as="alternateBounds" />
          </mxGeometry>
        </mxCell>
        <mxCell id="WSu7LC8AcZz-CQn59D3N-108" value="Email" style="shape=partialRectangle;connectable=0;fillColor=none;top=0;left=0;bottom=0;right=0;align=left;spacingLeft=6;overflow=hidden;whiteSpace=wrap;html=1;" vertex="1" parent="WSu7LC8AcZz-CQn59D3N-106">
          <mxGeometry x="30" width="150" height="30" as="geometry">
            <mxRectangle width="150" height="30" as="alternateBounds" />
          </mxGeometry>
        </mxCell>
        <mxCell id="WSu7LC8AcZz-CQn59D3N-109" style="shape=tableRow;horizontal=0;startSize=0;swimlaneHead=0;swimlaneBody=0;fillColor=none;collapsible=0;dropTarget=0;points=[[0,0.5],[1,0.5]];portConstraint=eastwest;top=0;left=0;right=0;bottom=0;" vertex="1" parent="WSu7LC8AcZz-CQn59D3N-87">
          <mxGeometry y="240" width="180" height="30" as="geometry" />
        </mxCell>
        <mxCell id="WSu7LC8AcZz-CQn59D3N-110" style="shape=partialRectangle;connectable=0;fillColor=none;top=0;left=0;bottom=0;right=0;editable=1;overflow=hidden;whiteSpace=wrap;html=1;" vertex="1" parent="WSu7LC8AcZz-CQn59D3N-109">
          <mxGeometry width="30" height="30" as="geometry">
            <mxRectangle width="30" height="30" as="alternateBounds" />
          </mxGeometry>
        </mxCell>
        <mxCell id="WSu7LC8AcZz-CQn59D3N-111" value="Date_Birth" style="shape=partialRectangle;connectable=0;fillColor=none;top=0;left=0;bottom=0;right=0;align=left;spacingLeft=6;overflow=hidden;whiteSpace=wrap;html=1;" vertex="1" parent="WSu7LC8AcZz-CQn59D3N-109">
          <mxGeometry x="30" width="150" height="30" as="geometry">
            <mxRectangle width="150" height="30" as="alternateBounds" />
          </mxGeometry>
        </mxCell>
        <mxCell id="WSu7LC8AcZz-CQn59D3N-112" style="shape=tableRow;horizontal=0;startSize=0;swimlaneHead=0;swimlaneBody=0;fillColor=none;collapsible=0;dropTarget=0;points=[[0,0.5],[1,0.5]];portConstraint=eastwest;top=0;left=0;right=0;bottom=0;" vertex="1" parent="WSu7LC8AcZz-CQn59D3N-87">
          <mxGeometry y="270" width="180" height="30" as="geometry" />
        </mxCell>
        <mxCell id="WSu7LC8AcZz-CQn59D3N-113" value="FK" style="shape=partialRectangle;connectable=0;fillColor=none;top=0;left=0;bottom=0;right=0;editable=1;overflow=hidden;whiteSpace=wrap;html=1;fontStyle=1" vertex="1" parent="WSu7LC8AcZz-CQn59D3N-112">
          <mxGeometry width="30" height="30" as="geometry">
            <mxRectangle width="30" height="30" as="alternateBounds" />
          </mxGeometry>
        </mxCell>
        <mxCell id="WSu7LC8AcZz-CQn59D3N-114" value="Nationality" style="shape=partialRectangle;connectable=0;fillColor=none;top=0;left=0;bottom=0;right=0;align=left;spacingLeft=6;overflow=hidden;whiteSpace=wrap;html=1;" vertex="1" parent="WSu7LC8AcZz-CQn59D3N-112">
          <mxGeometry x="30" width="150" height="30" as="geometry">
            <mxRectangle width="150" height="30" as="alternateBounds" />
          </mxGeometry>
        </mxCell>
        <mxCell id="WSu7LC8AcZz-CQn59D3N-115" style="shape=tableRow;horizontal=0;startSize=0;swimlaneHead=0;swimlaneBody=0;fillColor=none;collapsible=0;dropTarget=0;points=[[0,0.5],[1,0.5]];portConstraint=eastwest;top=0;left=0;right=0;bottom=0;" vertex="1" parent="WSu7LC8AcZz-CQn59D3N-87">
          <mxGeometry y="300" width="180" height="30" as="geometry" />
        </mxCell>
        <mxCell id="WSu7LC8AcZz-CQn59D3N-116" value="FK" style="shape=partialRectangle;connectable=0;fillColor=none;top=0;left=0;bottom=0;right=0;editable=1;overflow=hidden;whiteSpace=wrap;html=1;fontStyle=1" vertex="1" parent="WSu7LC8AcZz-CQn59D3N-115">
          <mxGeometry width="30" height="30" as="geometry">
            <mxRectangle width="30" height="30" as="alternateBounds" />
          </mxGeometry>
        </mxCell>
        <mxCell id="WSu7LC8AcZz-CQn59D3N-117" value="SubscriptionID" style="shape=partialRectangle;connectable=0;fillColor=none;top=0;left=0;bottom=0;right=0;align=left;spacingLeft=6;overflow=hidden;whiteSpace=wrap;html=1;" vertex="1" parent="WSu7LC8AcZz-CQn59D3N-115">
          <mxGeometry x="30" width="150" height="30" as="geometry">
            <mxRectangle width="150" height="30" as="alternateBounds" />
          </mxGeometry>
        </mxCell>
        <mxCell id="WSu7LC8AcZz-CQn59D3N-118" value="Artist" style="shape=table;startSize=30;container=1;collapsible=1;childLayout=tableLayout;fixedRows=1;rowLines=0;fontStyle=1;align=center;resizeLast=1;html=1;" vertex="1" parent="1">
          <mxGeometry x="60" y="50" width="180" height="150" as="geometry" />
        </mxCell>
        <mxCell id="WSu7LC8AcZz-CQn59D3N-119" value="" style="shape=tableRow;horizontal=0;startSize=0;swimlaneHead=0;swimlaneBody=0;fillColor=none;collapsible=0;dropTarget=0;points=[[0,0.5],[1,0.5]];portConstraint=eastwest;top=0;left=0;right=0;bottom=1;" vertex="1" parent="WSu7LC8AcZz-CQn59D3N-118">
          <mxGeometry y="30" width="180" height="30" as="geometry" />
        </mxCell>
        <mxCell id="WSu7LC8AcZz-CQn59D3N-120" value="PK" style="shape=partialRectangle;connectable=0;fillColor=none;top=0;left=0;bottom=0;right=0;fontStyle=1;overflow=hidden;whiteSpace=wrap;html=1;" vertex="1" parent="WSu7LC8AcZz-CQn59D3N-119">
          <mxGeometry width="30" height="30" as="geometry">
            <mxRectangle width="30" height="30" as="alternateBounds" />
          </mxGeometry>
        </mxCell>
        <mxCell id="WSu7LC8AcZz-CQn59D3N-121" value="ArtistID" style="shape=partialRectangle;connectable=0;fillColor=none;top=0;left=0;bottom=0;right=0;align=left;spacingLeft=6;fontStyle=5;overflow=hidden;whiteSpace=wrap;html=1;" vertex="1" parent="WSu7LC8AcZz-CQn59D3N-119">
          <mxGeometry x="30" width="150" height="30" as="geometry">
            <mxRectangle width="150" height="30" as="alternateBounds" />
          </mxGeometry>
        </mxCell>
        <mxCell id="WSu7LC8AcZz-CQn59D3N-122" value="" style="shape=tableRow;horizontal=0;startSize=0;swimlaneHead=0;swimlaneBody=0;fillColor=none;collapsible=0;dropTarget=0;points=[[0,0.5],[1,0.5]];portConstraint=eastwest;top=0;left=0;right=0;bottom=0;" vertex="1" parent="WSu7LC8AcZz-CQn59D3N-118">
          <mxGeometry y="60" width="180" height="30" as="geometry" />
        </mxCell>
        <mxCell id="WSu7LC8AcZz-CQn59D3N-123" value="" style="shape=partialRectangle;connectable=0;fillColor=none;top=0;left=0;bottom=0;right=0;editable=1;overflow=hidden;whiteSpace=wrap;html=1;" vertex="1" parent="WSu7LC8AcZz-CQn59D3N-122">
          <mxGeometry width="30" height="30" as="geometry">
            <mxRectangle width="30" height="30" as="alternateBounds" />
          </mxGeometry>
        </mxCell>
        <mxCell id="WSu7LC8AcZz-CQn59D3N-124" value="Artist_Name" style="shape=partialRectangle;connectable=0;fillColor=none;top=0;left=0;bottom=0;right=0;align=left;spacingLeft=6;overflow=hidden;whiteSpace=wrap;html=1;" vertex="1" parent="WSu7LC8AcZz-CQn59D3N-122">
          <mxGeometry x="30" width="150" height="30" as="geometry">
            <mxRectangle width="150" height="30" as="alternateBounds" />
          </mxGeometry>
        </mxCell>
        <mxCell id="WSu7LC8AcZz-CQn59D3N-125" value="" style="shape=tableRow;horizontal=0;startSize=0;swimlaneHead=0;swimlaneBody=0;fillColor=none;collapsible=0;dropTarget=0;points=[[0,0.5],[1,0.5]];portConstraint=eastwest;top=0;left=0;right=0;bottom=0;" vertex="1" parent="WSu7LC8AcZz-CQn59D3N-118">
          <mxGeometry y="90" width="180" height="30" as="geometry" />
        </mxCell>
        <mxCell id="WSu7LC8AcZz-CQn59D3N-126" value="" style="shape=partialRectangle;connectable=0;fillColor=none;top=0;left=0;bottom=0;right=0;editable=1;overflow=hidden;whiteSpace=wrap;html=1;" vertex="1" parent="WSu7LC8AcZz-CQn59D3N-125">
          <mxGeometry width="30" height="30" as="geometry">
            <mxRectangle width="30" height="30" as="alternateBounds" />
          </mxGeometry>
        </mxCell>
        <mxCell id="WSu7LC8AcZz-CQn59D3N-127" value="Genre" style="shape=partialRectangle;connectable=0;fillColor=none;top=0;left=0;bottom=0;right=0;align=left;spacingLeft=6;overflow=hidden;whiteSpace=wrap;html=1;" vertex="1" parent="WSu7LC8AcZz-CQn59D3N-125">
          <mxGeometry x="30" width="150" height="30" as="geometry">
            <mxRectangle width="150" height="30" as="alternateBounds" />
          </mxGeometry>
        </mxCell>
        <mxCell id="WSu7LC8AcZz-CQn59D3N-128" value="" style="shape=tableRow;horizontal=0;startSize=0;swimlaneHead=0;swimlaneBody=0;fillColor=none;collapsible=0;dropTarget=0;points=[[0,0.5],[1,0.5]];portConstraint=eastwest;top=0;left=0;right=0;bottom=0;" vertex="1" parent="WSu7LC8AcZz-CQn59D3N-118">
          <mxGeometry y="120" width="180" height="30" as="geometry" />
        </mxCell>
        <mxCell id="WSu7LC8AcZz-CQn59D3N-129" value="" style="shape=partialRectangle;connectable=0;fillColor=none;top=0;left=0;bottom=0;right=0;editable=1;overflow=hidden;whiteSpace=wrap;html=1;fontStyle=1" vertex="1" parent="WSu7LC8AcZz-CQn59D3N-128">
          <mxGeometry width="30" height="30" as="geometry">
            <mxRectangle width="30" height="30" as="alternateBounds" />
          </mxGeometry>
        </mxCell>
        <mxCell id="WSu7LC8AcZz-CQn59D3N-130" value="" style="shape=partialRectangle;connectable=0;fillColor=none;top=0;left=0;bottom=0;right=0;align=left;spacingLeft=6;overflow=hidden;whiteSpace=wrap;html=1;" vertex="1" parent="WSu7LC8AcZz-CQn59D3N-128">
          <mxGeometry x="30" width="150" height="30" as="geometry">
            <mxRectangle width="150" height="30" as="alternateBounds" />
          </mxGeometry>
        </mxCell>
        <mxCell id="WSu7LC8AcZz-CQn59D3N-131" value="Album" style="shape=table;startSize=30;container=1;collapsible=1;childLayout=tableLayout;fixedRows=1;rowLines=0;fontStyle=1;align=center;resizeLast=1;html=1;" vertex="1" parent="1">
          <mxGeometry x="790" y="50" width="180" height="150" as="geometry" />
        </mxCell>
        <mxCell id="WSu7LC8AcZz-CQn59D3N-132" value="" style="shape=tableRow;horizontal=0;startSize=0;swimlaneHead=0;swimlaneBody=0;fillColor=none;collapsible=0;dropTarget=0;points=[[0,0.5],[1,0.5]];portConstraint=eastwest;top=0;left=0;right=0;bottom=1;" vertex="1" parent="WSu7LC8AcZz-CQn59D3N-131">
          <mxGeometry y="30" width="180" height="30" as="geometry" />
        </mxCell>
        <mxCell id="WSu7LC8AcZz-CQn59D3N-133" value="PK" style="shape=partialRectangle;connectable=0;fillColor=none;top=0;left=0;bottom=0;right=0;fontStyle=1;overflow=hidden;whiteSpace=wrap;html=1;" vertex="1" parent="WSu7LC8AcZz-CQn59D3N-132">
          <mxGeometry width="30" height="30" as="geometry">
            <mxRectangle width="30" height="30" as="alternateBounds" />
          </mxGeometry>
        </mxCell>
        <mxCell id="WSu7LC8AcZz-CQn59D3N-134" value="AlbumID" style="shape=partialRectangle;connectable=0;fillColor=none;top=0;left=0;bottom=0;right=0;align=left;spacingLeft=6;fontStyle=5;overflow=hidden;whiteSpace=wrap;html=1;" vertex="1" parent="WSu7LC8AcZz-CQn59D3N-132">
          <mxGeometry x="30" width="150" height="30" as="geometry">
            <mxRectangle width="150" height="30" as="alternateBounds" />
          </mxGeometry>
        </mxCell>
        <mxCell id="WSu7LC8AcZz-CQn59D3N-135" value="" style="shape=tableRow;horizontal=0;startSize=0;swimlaneHead=0;swimlaneBody=0;fillColor=none;collapsible=0;dropTarget=0;points=[[0,0.5],[1,0.5]];portConstraint=eastwest;top=0;left=0;right=0;bottom=0;" vertex="1" parent="WSu7LC8AcZz-CQn59D3N-131">
          <mxGeometry y="60" width="180" height="30" as="geometry" />
        </mxCell>
        <mxCell id="WSu7LC8AcZz-CQn59D3N-136" value="" style="shape=partialRectangle;connectable=0;fillColor=none;top=0;left=0;bottom=0;right=0;editable=1;overflow=hidden;whiteSpace=wrap;html=1;" vertex="1" parent="WSu7LC8AcZz-CQn59D3N-135">
          <mxGeometry width="30" height="30" as="geometry">
            <mxRectangle width="30" height="30" as="alternateBounds" />
          </mxGeometry>
        </mxCell>
        <mxCell id="WSu7LC8AcZz-CQn59D3N-137" value="AlbumName" style="shape=partialRectangle;connectable=0;fillColor=none;top=0;left=0;bottom=0;right=0;align=left;spacingLeft=6;overflow=hidden;whiteSpace=wrap;html=1;" vertex="1" parent="WSu7LC8AcZz-CQn59D3N-135">
          <mxGeometry x="30" width="150" height="30" as="geometry">
            <mxRectangle width="150" height="30" as="alternateBounds" />
          </mxGeometry>
        </mxCell>
        <mxCell id="WSu7LC8AcZz-CQn59D3N-138" value="" style="shape=tableRow;horizontal=0;startSize=0;swimlaneHead=0;swimlaneBody=0;fillColor=none;collapsible=0;dropTarget=0;points=[[0,0.5],[1,0.5]];portConstraint=eastwest;top=0;left=0;right=0;bottom=0;" vertex="1" parent="WSu7LC8AcZz-CQn59D3N-131">
          <mxGeometry y="90" width="180" height="30" as="geometry" />
        </mxCell>
        <mxCell id="WSu7LC8AcZz-CQn59D3N-139" value="" style="shape=partialRectangle;connectable=0;fillColor=none;top=0;left=0;bottom=0;right=0;editable=1;overflow=hidden;whiteSpace=wrap;html=1;" vertex="1" parent="WSu7LC8AcZz-CQn59D3N-138">
          <mxGeometry width="30" height="30" as="geometry">
            <mxRectangle width="30" height="30" as="alternateBounds" />
          </mxGeometry>
        </mxCell>
        <mxCell id="WSu7LC8AcZz-CQn59D3N-140" value="Release_Date" style="shape=partialRectangle;connectable=0;fillColor=none;top=0;left=0;bottom=0;right=0;align=left;spacingLeft=6;overflow=hidden;whiteSpace=wrap;html=1;" vertex="1" parent="WSu7LC8AcZz-CQn59D3N-138">
          <mxGeometry x="30" width="150" height="30" as="geometry">
            <mxRectangle width="150" height="30" as="alternateBounds" />
          </mxGeometry>
        </mxCell>
        <mxCell id="WSu7LC8AcZz-CQn59D3N-141" value="" style="shape=tableRow;horizontal=0;startSize=0;swimlaneHead=0;swimlaneBody=0;fillColor=none;collapsible=0;dropTarget=0;points=[[0,0.5],[1,0.5]];portConstraint=eastwest;top=0;left=0;right=0;bottom=0;" vertex="1" parent="WSu7LC8AcZz-CQn59D3N-131">
          <mxGeometry y="120" width="180" height="30" as="geometry" />
        </mxCell>
        <mxCell id="WSu7LC8AcZz-CQn59D3N-142" value="" style="shape=partialRectangle;connectable=0;fillColor=none;top=0;left=0;bottom=0;right=0;editable=1;overflow=hidden;whiteSpace=wrap;html=1;" vertex="1" parent="WSu7LC8AcZz-CQn59D3N-141">
          <mxGeometry width="30" height="30" as="geometry">
            <mxRectangle width="30" height="30" as="alternateBounds" />
          </mxGeometry>
        </mxCell>
        <mxCell id="WSu7LC8AcZz-CQn59D3N-143" value="" style="shape=partialRectangle;connectable=0;fillColor=none;top=0;left=0;bottom=0;right=0;align=left;spacingLeft=6;overflow=hidden;whiteSpace=wrap;html=1;" vertex="1" parent="WSu7LC8AcZz-CQn59D3N-141">
          <mxGeometry x="30" width="150" height="30" as="geometry">
            <mxRectangle width="150" height="30" as="alternateBounds" />
          </mxGeometry>
        </mxCell>
        <mxCell id="WSu7LC8AcZz-CQn59D3N-144" value="Songs" style="shape=table;startSize=30;container=1;collapsible=1;childLayout=tableLayout;fixedRows=1;rowLines=0;fontStyle=1;align=center;resizeLast=1;html=1;" vertex="1" parent="1">
          <mxGeometry x="1510" y="30" width="180" height="240" as="geometry" />
        </mxCell>
        <mxCell id="WSu7LC8AcZz-CQn59D3N-145" value="" style="shape=tableRow;horizontal=0;startSize=0;swimlaneHead=0;swimlaneBody=0;fillColor=none;collapsible=0;dropTarget=0;points=[[0,0.5],[1,0.5]];portConstraint=eastwest;top=0;left=0;right=0;bottom=1;" vertex="1" parent="WSu7LC8AcZz-CQn59D3N-144">
          <mxGeometry y="30" width="180" height="30" as="geometry" />
        </mxCell>
        <mxCell id="WSu7LC8AcZz-CQn59D3N-146" value="PK" style="shape=partialRectangle;connectable=0;fillColor=none;top=0;left=0;bottom=0;right=0;fontStyle=1;overflow=hidden;whiteSpace=wrap;html=1;" vertex="1" parent="WSu7LC8AcZz-CQn59D3N-145">
          <mxGeometry width="30" height="30" as="geometry">
            <mxRectangle width="30" height="30" as="alternateBounds" />
          </mxGeometry>
        </mxCell>
        <mxCell id="WSu7LC8AcZz-CQn59D3N-147" value="SongID" style="shape=partialRectangle;connectable=0;fillColor=none;top=0;left=0;bottom=0;right=0;align=left;spacingLeft=6;fontStyle=5;overflow=hidden;whiteSpace=wrap;html=1;" vertex="1" parent="WSu7LC8AcZz-CQn59D3N-145">
          <mxGeometry x="30" width="150" height="30" as="geometry">
            <mxRectangle width="150" height="30" as="alternateBounds" />
          </mxGeometry>
        </mxCell>
        <mxCell id="WSu7LC8AcZz-CQn59D3N-148" value="" style="shape=tableRow;horizontal=0;startSize=0;swimlaneHead=0;swimlaneBody=0;fillColor=none;collapsible=0;dropTarget=0;points=[[0,0.5],[1,0.5]];portConstraint=eastwest;top=0;left=0;right=0;bottom=0;" vertex="1" parent="WSu7LC8AcZz-CQn59D3N-144">
          <mxGeometry y="60" width="180" height="30" as="geometry" />
        </mxCell>
        <mxCell id="WSu7LC8AcZz-CQn59D3N-149" value="" style="shape=partialRectangle;connectable=0;fillColor=none;top=0;left=0;bottom=0;right=0;editable=1;overflow=hidden;whiteSpace=wrap;html=1;" vertex="1" parent="WSu7LC8AcZz-CQn59D3N-148">
          <mxGeometry width="30" height="30" as="geometry">
            <mxRectangle width="30" height="30" as="alternateBounds" />
          </mxGeometry>
        </mxCell>
        <mxCell id="WSu7LC8AcZz-CQn59D3N-150" value="Title" style="shape=partialRectangle;connectable=0;fillColor=none;top=0;left=0;bottom=0;right=0;align=left;spacingLeft=6;overflow=hidden;whiteSpace=wrap;html=1;" vertex="1" parent="WSu7LC8AcZz-CQn59D3N-148">
          <mxGeometry x="30" width="150" height="30" as="geometry">
            <mxRectangle width="150" height="30" as="alternateBounds" />
          </mxGeometry>
        </mxCell>
        <mxCell id="WSu7LC8AcZz-CQn59D3N-151" value="" style="shape=tableRow;horizontal=0;startSize=0;swimlaneHead=0;swimlaneBody=0;fillColor=none;collapsible=0;dropTarget=0;points=[[0,0.5],[1,0.5]];portConstraint=eastwest;top=0;left=0;right=0;bottom=0;" vertex="1" parent="WSu7LC8AcZz-CQn59D3N-144">
          <mxGeometry y="90" width="180" height="30" as="geometry" />
        </mxCell>
        <mxCell id="WSu7LC8AcZz-CQn59D3N-152" value="" style="shape=partialRectangle;connectable=0;fillColor=none;top=0;left=0;bottom=0;right=0;editable=1;overflow=hidden;whiteSpace=wrap;html=1;" vertex="1" parent="WSu7LC8AcZz-CQn59D3N-151">
          <mxGeometry width="30" height="30" as="geometry">
            <mxRectangle width="30" height="30" as="alternateBounds" />
          </mxGeometry>
        </mxCell>
        <mxCell id="WSu7LC8AcZz-CQn59D3N-153" value="TrackNum" style="shape=partialRectangle;connectable=0;fillColor=none;top=0;left=0;bottom=0;right=0;align=left;spacingLeft=6;overflow=hidden;whiteSpace=wrap;html=1;" vertex="1" parent="WSu7LC8AcZz-CQn59D3N-151">
          <mxGeometry x="30" width="150" height="30" as="geometry">
            <mxRectangle width="150" height="30" as="alternateBounds" />
          </mxGeometry>
        </mxCell>
        <mxCell id="WSu7LC8AcZz-CQn59D3N-154" value="" style="shape=tableRow;horizontal=0;startSize=0;swimlaneHead=0;swimlaneBody=0;fillColor=none;collapsible=0;dropTarget=0;points=[[0,0.5],[1,0.5]];portConstraint=eastwest;top=0;left=0;right=0;bottom=0;" vertex="1" parent="WSu7LC8AcZz-CQn59D3N-144">
          <mxGeometry y="120" width="180" height="30" as="geometry" />
        </mxCell>
        <mxCell id="WSu7LC8AcZz-CQn59D3N-155" value="" style="shape=partialRectangle;connectable=0;fillColor=none;top=0;left=0;bottom=0;right=0;editable=1;overflow=hidden;whiteSpace=wrap;html=1;" vertex="1" parent="WSu7LC8AcZz-CQn59D3N-154">
          <mxGeometry width="30" height="30" as="geometry">
            <mxRectangle width="30" height="30" as="alternateBounds" />
          </mxGeometry>
        </mxCell>
        <mxCell id="WSu7LC8AcZz-CQn59D3N-156" value="DiskNum" style="shape=partialRectangle;connectable=0;fillColor=none;top=0;left=0;bottom=0;right=0;align=left;spacingLeft=6;overflow=hidden;whiteSpace=wrap;html=1;" vertex="1" parent="WSu7LC8AcZz-CQn59D3N-154">
          <mxGeometry x="30" width="150" height="30" as="geometry">
            <mxRectangle width="150" height="30" as="alternateBounds" />
          </mxGeometry>
        </mxCell>
        <mxCell id="WSu7LC8AcZz-CQn59D3N-157" style="shape=tableRow;horizontal=0;startSize=0;swimlaneHead=0;swimlaneBody=0;fillColor=none;collapsible=0;dropTarget=0;points=[[0,0.5],[1,0.5]];portConstraint=eastwest;top=0;left=0;right=0;bottom=0;" vertex="1" parent="WSu7LC8AcZz-CQn59D3N-144">
          <mxGeometry y="150" width="180" height="30" as="geometry" />
        </mxCell>
        <mxCell id="WSu7LC8AcZz-CQn59D3N-158" style="shape=partialRectangle;connectable=0;fillColor=none;top=0;left=0;bottom=0;right=0;editable=1;overflow=hidden;whiteSpace=wrap;html=1;" vertex="1" parent="WSu7LC8AcZz-CQn59D3N-157">
          <mxGeometry width="30" height="30" as="geometry">
            <mxRectangle width="30" height="30" as="alternateBounds" />
          </mxGeometry>
        </mxCell>
        <mxCell id="WSu7LC8AcZz-CQn59D3N-159" value="Explicit" style="shape=partialRectangle;connectable=0;fillColor=none;top=0;left=0;bottom=0;right=0;align=left;spacingLeft=6;overflow=hidden;whiteSpace=wrap;html=1;" vertex="1" parent="WSu7LC8AcZz-CQn59D3N-157">
          <mxGeometry x="30" width="150" height="30" as="geometry">
            <mxRectangle width="150" height="30" as="alternateBounds" />
          </mxGeometry>
        </mxCell>
        <mxCell id="WSu7LC8AcZz-CQn59D3N-160" style="shape=tableRow;horizontal=0;startSize=0;swimlaneHead=0;swimlaneBody=0;fillColor=none;collapsible=0;dropTarget=0;points=[[0,0.5],[1,0.5]];portConstraint=eastwest;top=0;left=0;right=0;bottom=0;" vertex="1" parent="WSu7LC8AcZz-CQn59D3N-144">
          <mxGeometry y="180" width="180" height="30" as="geometry" />
        </mxCell>
        <mxCell id="WSu7LC8AcZz-CQn59D3N-161" style="shape=partialRectangle;connectable=0;fillColor=none;top=0;left=0;bottom=0;right=0;editable=1;overflow=hidden;whiteSpace=wrap;html=1;" vertex="1" parent="WSu7LC8AcZz-CQn59D3N-160">
          <mxGeometry width="30" height="30" as="geometry">
            <mxRectangle width="30" height="30" as="alternateBounds" />
          </mxGeometry>
        </mxCell>
        <mxCell id="WSu7LC8AcZz-CQn59D3N-162" value="Duration" style="shape=partialRectangle;connectable=0;fillColor=none;top=0;left=0;bottom=0;right=0;align=left;spacingLeft=6;overflow=hidden;whiteSpace=wrap;html=1;" vertex="1" parent="WSu7LC8AcZz-CQn59D3N-160">
          <mxGeometry x="30" width="150" height="30" as="geometry">
            <mxRectangle width="150" height="30" as="alternateBounds" />
          </mxGeometry>
        </mxCell>
        <mxCell id="WSu7LC8AcZz-CQn59D3N-163" style="shape=tableRow;horizontal=0;startSize=0;swimlaneHead=0;swimlaneBody=0;fillColor=none;collapsible=0;dropTarget=0;points=[[0,0.5],[1,0.5]];portConstraint=eastwest;top=0;left=0;right=0;bottom=0;" vertex="1" parent="WSu7LC8AcZz-CQn59D3N-144">
          <mxGeometry y="210" width="180" height="30" as="geometry" />
        </mxCell>
        <mxCell id="WSu7LC8AcZz-CQn59D3N-164" value="&lt;b&gt;FK&lt;/b&gt;" style="shape=partialRectangle;connectable=0;fillColor=none;top=0;left=0;bottom=0;right=0;editable=1;overflow=hidden;whiteSpace=wrap;html=1;" vertex="1" parent="WSu7LC8AcZz-CQn59D3N-163">
          <mxGeometry width="30" height="30" as="geometry">
            <mxRectangle width="30" height="30" as="alternateBounds" />
          </mxGeometry>
        </mxCell>
        <mxCell id="WSu7LC8AcZz-CQn59D3N-165" value="AlbumID" style="shape=partialRectangle;connectable=0;fillColor=none;top=0;left=0;bottom=0;right=0;align=left;spacingLeft=6;overflow=hidden;whiteSpace=wrap;html=1;" vertex="1" parent="WSu7LC8AcZz-CQn59D3N-163">
          <mxGeometry x="30" width="150" height="30" as="geometry">
            <mxRectangle width="150" height="30" as="alternateBounds" />
          </mxGeometry>
        </mxCell>
        <mxCell id="WSu7LC8AcZz-CQn59D3N-188" value="Song_Metadata" style="shape=table;startSize=30;container=1;collapsible=1;childLayout=tableLayout;fixedRows=1;rowLines=0;fontStyle=1;align=center;resizeLast=1;html=1;whiteSpace=wrap;" vertex="1" parent="1">
          <mxGeometry x="1500" y="460" width="180" height="330" as="geometry" />
        </mxCell>
        <mxCell id="WSu7LC8AcZz-CQn59D3N-192" value="" style="shape=tableRow;horizontal=0;startSize=0;swimlaneHead=0;swimlaneBody=0;fillColor=none;collapsible=0;dropTarget=0;points=[[0,0.5],[1,0.5]];portConstraint=eastwest;top=0;left=0;right=0;bottom=1;html=1;" vertex="1" parent="WSu7LC8AcZz-CQn59D3N-188">
          <mxGeometry y="30" width="180" height="30" as="geometry" />
        </mxCell>
        <mxCell id="WSu7LC8AcZz-CQn59D3N-193" value="PK,FK" style="shape=partialRectangle;connectable=0;fillColor=none;top=0;left=0;bottom=0;right=0;fontStyle=1;overflow=hidden;html=1;whiteSpace=wrap;" vertex="1" parent="WSu7LC8AcZz-CQn59D3N-192">
          <mxGeometry width="60" height="30" as="geometry">
            <mxRectangle width="60" height="30" as="alternateBounds" />
          </mxGeometry>
        </mxCell>
        <mxCell id="WSu7LC8AcZz-CQn59D3N-194" value="SongID" style="shape=partialRectangle;connectable=0;fillColor=none;top=0;left=0;bottom=0;right=0;align=left;spacingLeft=6;fontStyle=5;overflow=hidden;html=1;whiteSpace=wrap;" vertex="1" parent="WSu7LC8AcZz-CQn59D3N-192">
          <mxGeometry x="60" width="120" height="30" as="geometry">
            <mxRectangle width="120" height="30" as="alternateBounds" />
          </mxGeometry>
        </mxCell>
        <mxCell id="WSu7LC8AcZz-CQn59D3N-195" value="" style="shape=tableRow;horizontal=0;startSize=0;swimlaneHead=0;swimlaneBody=0;fillColor=none;collapsible=0;dropTarget=0;points=[[0,0.5],[1,0.5]];portConstraint=eastwest;top=0;left=0;right=0;bottom=0;html=1;" vertex="1" parent="WSu7LC8AcZz-CQn59D3N-188">
          <mxGeometry y="60" width="180" height="30" as="geometry" />
        </mxCell>
        <mxCell id="WSu7LC8AcZz-CQn59D3N-196" value="" style="shape=partialRectangle;connectable=0;fillColor=none;top=0;left=0;bottom=0;right=0;editable=1;overflow=hidden;html=1;whiteSpace=wrap;" vertex="1" parent="WSu7LC8AcZz-CQn59D3N-195">
          <mxGeometry width="60" height="30" as="geometry">
            <mxRectangle width="60" height="30" as="alternateBounds" />
          </mxGeometry>
        </mxCell>
        <mxCell id="WSu7LC8AcZz-CQn59D3N-197" value="Dance" style="shape=partialRectangle;connectable=0;fillColor=none;top=0;left=0;bottom=0;right=0;align=left;spacingLeft=6;overflow=hidden;html=1;whiteSpace=wrap;" vertex="1" parent="WSu7LC8AcZz-CQn59D3N-195">
          <mxGeometry x="60" width="120" height="30" as="geometry">
            <mxRectangle width="120" height="30" as="alternateBounds" />
          </mxGeometry>
        </mxCell>
        <mxCell id="WSu7LC8AcZz-CQn59D3N-204" style="shape=tableRow;horizontal=0;startSize=0;swimlaneHead=0;swimlaneBody=0;fillColor=none;collapsible=0;dropTarget=0;points=[[0,0.5],[1,0.5]];portConstraint=eastwest;top=0;left=0;right=0;bottom=0;html=1;" vertex="1" parent="WSu7LC8AcZz-CQn59D3N-188">
          <mxGeometry y="90" width="180" height="30" as="geometry" />
        </mxCell>
        <mxCell id="WSu7LC8AcZz-CQn59D3N-205" style="shape=partialRectangle;connectable=0;fillColor=none;top=0;left=0;bottom=0;right=0;editable=1;overflow=hidden;html=1;whiteSpace=wrap;" vertex="1" parent="WSu7LC8AcZz-CQn59D3N-204">
          <mxGeometry width="60" height="30" as="geometry">
            <mxRectangle width="60" height="30" as="alternateBounds" />
          </mxGeometry>
        </mxCell>
        <mxCell id="WSu7LC8AcZz-CQn59D3N-206" value="Valence" style="shape=partialRectangle;connectable=0;fillColor=none;top=0;left=0;bottom=0;right=0;align=left;spacingLeft=6;overflow=hidden;html=1;whiteSpace=wrap;" vertex="1" parent="WSu7LC8AcZz-CQn59D3N-204">
          <mxGeometry x="60" width="120" height="30" as="geometry">
            <mxRectangle width="120" height="30" as="alternateBounds" />
          </mxGeometry>
        </mxCell>
        <mxCell id="WSu7LC8AcZz-CQn59D3N-219" style="shape=tableRow;horizontal=0;startSize=0;swimlaneHead=0;swimlaneBody=0;fillColor=none;collapsible=0;dropTarget=0;points=[[0,0.5],[1,0.5]];portConstraint=eastwest;top=0;left=0;right=0;bottom=0;html=1;" vertex="1" parent="WSu7LC8AcZz-CQn59D3N-188">
          <mxGeometry y="120" width="180" height="30" as="geometry" />
        </mxCell>
        <mxCell id="WSu7LC8AcZz-CQn59D3N-220" style="shape=partialRectangle;connectable=0;fillColor=none;top=0;left=0;bottom=0;right=0;editable=1;overflow=hidden;html=1;whiteSpace=wrap;" vertex="1" parent="WSu7LC8AcZz-CQn59D3N-219">
          <mxGeometry width="60" height="30" as="geometry">
            <mxRectangle width="60" height="30" as="alternateBounds" />
          </mxGeometry>
        </mxCell>
        <mxCell id="WSu7LC8AcZz-CQn59D3N-221" value="BPM" style="shape=partialRectangle;connectable=0;fillColor=none;top=0;left=0;bottom=0;right=0;align=left;spacingLeft=6;overflow=hidden;html=1;whiteSpace=wrap;" vertex="1" parent="WSu7LC8AcZz-CQn59D3N-219">
          <mxGeometry x="60" width="120" height="30" as="geometry">
            <mxRectangle width="120" height="30" as="alternateBounds" />
          </mxGeometry>
        </mxCell>
        <mxCell id="WSu7LC8AcZz-CQn59D3N-216" style="shape=tableRow;horizontal=0;startSize=0;swimlaneHead=0;swimlaneBody=0;fillColor=none;collapsible=0;dropTarget=0;points=[[0,0.5],[1,0.5]];portConstraint=eastwest;top=0;left=0;right=0;bottom=0;html=1;" vertex="1" parent="WSu7LC8AcZz-CQn59D3N-188">
          <mxGeometry y="150" width="180" height="30" as="geometry" />
        </mxCell>
        <mxCell id="WSu7LC8AcZz-CQn59D3N-217" style="shape=partialRectangle;connectable=0;fillColor=none;top=0;left=0;bottom=0;right=0;editable=1;overflow=hidden;html=1;whiteSpace=wrap;" vertex="1" parent="WSu7LC8AcZz-CQn59D3N-216">
          <mxGeometry width="60" height="30" as="geometry">
            <mxRectangle width="60" height="30" as="alternateBounds" />
          </mxGeometry>
        </mxCell>
        <mxCell id="WSu7LC8AcZz-CQn59D3N-218" value="Energy" style="shape=partialRectangle;connectable=0;fillColor=none;top=0;left=0;bottom=0;right=0;align=left;spacingLeft=6;overflow=hidden;html=1;whiteSpace=wrap;" vertex="1" parent="WSu7LC8AcZz-CQn59D3N-216">
          <mxGeometry x="60" width="120" height="30" as="geometry">
            <mxRectangle width="120" height="30" as="alternateBounds" />
          </mxGeometry>
        </mxCell>
        <mxCell id="WSu7LC8AcZz-CQn59D3N-213" style="shape=tableRow;horizontal=0;startSize=0;swimlaneHead=0;swimlaneBody=0;fillColor=none;collapsible=0;dropTarget=0;points=[[0,0.5],[1,0.5]];portConstraint=eastwest;top=0;left=0;right=0;bottom=0;html=1;" vertex="1" parent="WSu7LC8AcZz-CQn59D3N-188">
          <mxGeometry y="180" width="180" height="30" as="geometry" />
        </mxCell>
        <mxCell id="WSu7LC8AcZz-CQn59D3N-214" style="shape=partialRectangle;connectable=0;fillColor=none;top=0;left=0;bottom=0;right=0;editable=1;overflow=hidden;html=1;whiteSpace=wrap;" vertex="1" parent="WSu7LC8AcZz-CQn59D3N-213">
          <mxGeometry width="60" height="30" as="geometry">
            <mxRectangle width="60" height="30" as="alternateBounds" />
          </mxGeometry>
        </mxCell>
        <mxCell id="WSu7LC8AcZz-CQn59D3N-215" value="Loudness" style="shape=partialRectangle;connectable=0;fillColor=none;top=0;left=0;bottom=0;right=0;align=left;spacingLeft=6;overflow=hidden;html=1;whiteSpace=wrap;" vertex="1" parent="WSu7LC8AcZz-CQn59D3N-213">
          <mxGeometry x="60" width="120" height="30" as="geometry">
            <mxRectangle width="120" height="30" as="alternateBounds" />
          </mxGeometry>
        </mxCell>
        <mxCell id="WSu7LC8AcZz-CQn59D3N-210" style="shape=tableRow;horizontal=0;startSize=0;swimlaneHead=0;swimlaneBody=0;fillColor=none;collapsible=0;dropTarget=0;points=[[0,0.5],[1,0.5]];portConstraint=eastwest;top=0;left=0;right=0;bottom=0;html=1;" vertex="1" parent="WSu7LC8AcZz-CQn59D3N-188">
          <mxGeometry y="210" width="180" height="30" as="geometry" />
        </mxCell>
        <mxCell id="WSu7LC8AcZz-CQn59D3N-211" style="shape=partialRectangle;connectable=0;fillColor=none;top=0;left=0;bottom=0;right=0;editable=1;overflow=hidden;html=1;whiteSpace=wrap;" vertex="1" parent="WSu7LC8AcZz-CQn59D3N-210">
          <mxGeometry width="60" height="30" as="geometry">
            <mxRectangle width="60" height="30" as="alternateBounds" />
          </mxGeometry>
        </mxCell>
        <mxCell id="WSu7LC8AcZz-CQn59D3N-212" value="Speech" style="shape=partialRectangle;connectable=0;fillColor=none;top=0;left=0;bottom=0;right=0;align=left;spacingLeft=6;overflow=hidden;html=1;whiteSpace=wrap;" vertex="1" parent="WSu7LC8AcZz-CQn59D3N-210">
          <mxGeometry x="60" width="120" height="30" as="geometry">
            <mxRectangle width="120" height="30" as="alternateBounds" />
          </mxGeometry>
        </mxCell>
        <mxCell id="WSu7LC8AcZz-CQn59D3N-207" style="shape=tableRow;horizontal=0;startSize=0;swimlaneHead=0;swimlaneBody=0;fillColor=none;collapsible=0;dropTarget=0;points=[[0,0.5],[1,0.5]];portConstraint=eastwest;top=0;left=0;right=0;bottom=0;html=1;" vertex="1" parent="WSu7LC8AcZz-CQn59D3N-188">
          <mxGeometry y="240" width="180" height="30" as="geometry" />
        </mxCell>
        <mxCell id="WSu7LC8AcZz-CQn59D3N-208" style="shape=partialRectangle;connectable=0;fillColor=none;top=0;left=0;bottom=0;right=0;editable=1;overflow=hidden;html=1;whiteSpace=wrap;" vertex="1" parent="WSu7LC8AcZz-CQn59D3N-207">
          <mxGeometry width="60" height="30" as="geometry">
            <mxRectangle width="60" height="30" as="alternateBounds" />
          </mxGeometry>
        </mxCell>
        <mxCell id="WSu7LC8AcZz-CQn59D3N-209" value="Live" style="shape=partialRectangle;connectable=0;fillColor=none;top=0;left=0;bottom=0;right=0;align=left;spacingLeft=6;overflow=hidden;html=1;whiteSpace=wrap;" vertex="1" parent="WSu7LC8AcZz-CQn59D3N-207">
          <mxGeometry x="60" width="120" height="30" as="geometry">
            <mxRectangle width="120" height="30" as="alternateBounds" />
          </mxGeometry>
        </mxCell>
        <mxCell id="WSu7LC8AcZz-CQn59D3N-225" style="shape=tableRow;horizontal=0;startSize=0;swimlaneHead=0;swimlaneBody=0;fillColor=none;collapsible=0;dropTarget=0;points=[[0,0.5],[1,0.5]];portConstraint=eastwest;top=0;left=0;right=0;bottom=0;html=1;" vertex="1" parent="WSu7LC8AcZz-CQn59D3N-188">
          <mxGeometry y="270" width="180" height="30" as="geometry" />
        </mxCell>
        <mxCell id="WSu7LC8AcZz-CQn59D3N-226" style="shape=partialRectangle;connectable=0;fillColor=none;top=0;left=0;bottom=0;right=0;editable=1;overflow=hidden;html=1;whiteSpace=wrap;" vertex="1" parent="WSu7LC8AcZz-CQn59D3N-225">
          <mxGeometry width="60" height="30" as="geometry">
            <mxRectangle width="60" height="30" as="alternateBounds" />
          </mxGeometry>
        </mxCell>
        <mxCell id="WSu7LC8AcZz-CQn59D3N-227" value="Instrumental" style="shape=partialRectangle;connectable=0;fillColor=none;top=0;left=0;bottom=0;right=0;align=left;spacingLeft=6;overflow=hidden;html=1;whiteSpace=wrap;" vertex="1" parent="WSu7LC8AcZz-CQn59D3N-225">
          <mxGeometry x="60" width="120" height="30" as="geometry">
            <mxRectangle width="120" height="30" as="alternateBounds" />
          </mxGeometry>
        </mxCell>
        <mxCell id="WSu7LC8AcZz-CQn59D3N-222" style="shape=tableRow;horizontal=0;startSize=0;swimlaneHead=0;swimlaneBody=0;fillColor=none;collapsible=0;dropTarget=0;points=[[0,0.5],[1,0.5]];portConstraint=eastwest;top=0;left=0;right=0;bottom=0;html=1;" vertex="1" parent="WSu7LC8AcZz-CQn59D3N-188">
          <mxGeometry y="300" width="180" height="30" as="geometry" />
        </mxCell>
        <mxCell id="WSu7LC8AcZz-CQn59D3N-223" style="shape=partialRectangle;connectable=0;fillColor=none;top=0;left=0;bottom=0;right=0;editable=1;overflow=hidden;html=1;whiteSpace=wrap;" vertex="1" parent="WSu7LC8AcZz-CQn59D3N-222">
          <mxGeometry width="60" height="30" as="geometry">
            <mxRectangle width="60" height="30" as="alternateBounds" />
          </mxGeometry>
        </mxCell>
        <mxCell id="WSu7LC8AcZz-CQn59D3N-224" value="Acoustic" style="shape=partialRectangle;connectable=0;fillColor=none;top=0;left=0;bottom=0;right=0;align=left;spacingLeft=6;overflow=hidden;html=1;whiteSpace=wrap;" vertex="1" parent="WSu7LC8AcZz-CQn59D3N-222">
          <mxGeometry x="60" width="120" height="30" as="geometry">
            <mxRectangle width="120" height="30" as="alternateBounds" />
          </mxGeometry>
        </mxCell>
        <mxCell id="WSu7LC8AcZz-CQn59D3N-250" value="Featured_Artists_and_Producers" style="shape=table;startSize=30;container=1;collapsible=1;childLayout=tableLayout;fixedRows=1;rowLines=0;fontStyle=1;align=center;resizeLast=1;html=1;whiteSpace=wrap;" vertex="1" parent="1">
          <mxGeometry x="380" y="70" width="280" height="90" as="geometry" />
        </mxCell>
        <mxCell id="WSu7LC8AcZz-CQn59D3N-251" value="" style="shape=tableRow;horizontal=0;startSize=0;swimlaneHead=0;swimlaneBody=0;fillColor=none;collapsible=0;dropTarget=0;points=[[0,0.5],[1,0.5]];portConstraint=eastwest;top=0;left=0;right=0;bottom=0;html=1;" vertex="1" parent="WSu7LC8AcZz-CQn59D3N-250">
          <mxGeometry y="30" width="280" height="30" as="geometry" />
        </mxCell>
        <mxCell id="WSu7LC8AcZz-CQn59D3N-252" value="FK1" style="shape=partialRectangle;connectable=0;fillColor=none;top=0;left=0;bottom=0;right=0;fontStyle=1;overflow=hidden;html=1;whiteSpace=wrap;" vertex="1" parent="WSu7LC8AcZz-CQn59D3N-251">
          <mxGeometry width="60" height="30" as="geometry">
            <mxRectangle width="60" height="30" as="alternateBounds" />
          </mxGeometry>
        </mxCell>
        <mxCell id="WSu7LC8AcZz-CQn59D3N-253" value="AlbumID" style="shape=partialRectangle;connectable=0;fillColor=none;top=0;left=0;bottom=0;right=0;align=left;spacingLeft=6;fontStyle=5;overflow=hidden;html=1;whiteSpace=wrap;" vertex="1" parent="WSu7LC8AcZz-CQn59D3N-251">
          <mxGeometry x="60" width="220" height="30" as="geometry">
            <mxRectangle width="220" height="30" as="alternateBounds" />
          </mxGeometry>
        </mxCell>
        <mxCell id="WSu7LC8AcZz-CQn59D3N-254" value="" style="shape=tableRow;horizontal=0;startSize=0;swimlaneHead=0;swimlaneBody=0;fillColor=none;collapsible=0;dropTarget=0;points=[[0,0.5],[1,0.5]];portConstraint=eastwest;top=0;left=0;right=0;bottom=1;html=1;" vertex="1" parent="WSu7LC8AcZz-CQn59D3N-250">
          <mxGeometry y="60" width="280" height="30" as="geometry" />
        </mxCell>
        <mxCell id="WSu7LC8AcZz-CQn59D3N-255" value="FK2" style="shape=partialRectangle;connectable=0;fillColor=none;top=0;left=0;bottom=0;right=0;fontStyle=1;overflow=hidden;html=1;whiteSpace=wrap;" vertex="1" parent="WSu7LC8AcZz-CQn59D3N-254">
          <mxGeometry width="60" height="30" as="geometry">
            <mxRectangle width="60" height="30" as="alternateBounds" />
          </mxGeometry>
        </mxCell>
        <mxCell id="WSu7LC8AcZz-CQn59D3N-256" value="ArtistID" style="shape=partialRectangle;connectable=0;fillColor=none;top=0;left=0;bottom=0;right=0;align=left;spacingLeft=6;fontStyle=5;overflow=hidden;html=1;whiteSpace=wrap;" vertex="1" parent="WSu7LC8AcZz-CQn59D3N-254">
          <mxGeometry x="60" width="220" height="30" as="geometry">
            <mxRectangle width="220" height="30" as="alternateBounds" />
          </mxGeometry>
        </mxCell>
        <mxCell id="WSu7LC8AcZz-CQn59D3N-265" value="Songs Liked" style="shape=table;startSize=30;container=1;collapsible=1;childLayout=tableLayout;fixedRows=1;rowLines=0;fontStyle=1;align=center;resizeLast=1;html=1;whiteSpace=wrap;" vertex="1" parent="1">
          <mxGeometry x="1050" y="370" width="280" height="90" as="geometry" />
        </mxCell>
        <mxCell id="WSu7LC8AcZz-CQn59D3N-266" value="" style="shape=tableRow;horizontal=0;startSize=0;swimlaneHead=0;swimlaneBody=0;fillColor=none;collapsible=0;dropTarget=0;points=[[0,0.5],[1,0.5]];portConstraint=eastwest;top=0;left=0;right=0;bottom=0;html=1;" vertex="1" parent="WSu7LC8AcZz-CQn59D3N-265">
          <mxGeometry y="30" width="280" height="30" as="geometry" />
        </mxCell>
        <mxCell id="WSu7LC8AcZz-CQn59D3N-267" value="FK1" style="shape=partialRectangle;connectable=0;fillColor=none;top=0;left=0;bottom=0;right=0;fontStyle=1;overflow=hidden;html=1;whiteSpace=wrap;" vertex="1" parent="WSu7LC8AcZz-CQn59D3N-266">
          <mxGeometry width="60" height="30" as="geometry">
            <mxRectangle width="60" height="30" as="alternateBounds" />
          </mxGeometry>
        </mxCell>
        <mxCell id="WSu7LC8AcZz-CQn59D3N-268" value="UserID" style="shape=partialRectangle;connectable=0;fillColor=none;top=0;left=0;bottom=0;right=0;align=left;spacingLeft=6;fontStyle=5;overflow=hidden;html=1;whiteSpace=wrap;" vertex="1" parent="WSu7LC8AcZz-CQn59D3N-266">
          <mxGeometry x="60" width="220" height="30" as="geometry">
            <mxRectangle width="220" height="30" as="alternateBounds" />
          </mxGeometry>
        </mxCell>
        <mxCell id="WSu7LC8AcZz-CQn59D3N-269" value="" style="shape=tableRow;horizontal=0;startSize=0;swimlaneHead=0;swimlaneBody=0;fillColor=none;collapsible=0;dropTarget=0;points=[[0,0.5],[1,0.5]];portConstraint=eastwest;top=0;left=0;right=0;bottom=1;html=1;" vertex="1" parent="WSu7LC8AcZz-CQn59D3N-265">
          <mxGeometry y="60" width="280" height="30" as="geometry" />
        </mxCell>
        <mxCell id="WSu7LC8AcZz-CQn59D3N-270" value="FK2" style="shape=partialRectangle;connectable=0;fillColor=none;top=0;left=0;bottom=0;right=0;fontStyle=1;overflow=hidden;html=1;whiteSpace=wrap;" vertex="1" parent="WSu7LC8AcZz-CQn59D3N-269">
          <mxGeometry width="60" height="30" as="geometry">
            <mxRectangle width="60" height="30" as="alternateBounds" />
          </mxGeometry>
        </mxCell>
        <mxCell id="WSu7LC8AcZz-CQn59D3N-271" value="SongID" style="shape=partialRectangle;connectable=0;fillColor=none;top=0;left=0;bottom=0;right=0;align=left;spacingLeft=6;fontStyle=5;overflow=hidden;html=1;whiteSpace=wrap;" vertex="1" parent="WSu7LC8AcZz-CQn59D3N-269">
          <mxGeometry x="60" width="220" height="30" as="geometry">
            <mxRectangle width="220" height="30" as="alternateBounds" />
          </mxGeometry>
        </mxCell>
        <mxCell id="WSu7LC8AcZz-CQn59D3N-272" value="Followed" style="shape=table;startSize=30;container=1;collapsible=1;childLayout=tableLayout;fixedRows=1;rowLines=0;fontStyle=1;align=center;resizeLast=1;html=1;whiteSpace=wrap;" vertex="1" parent="1">
          <mxGeometry x="274" y="310" width="280" height="90" as="geometry" />
        </mxCell>
        <mxCell id="WSu7LC8AcZz-CQn59D3N-273" value="" style="shape=tableRow;horizontal=0;startSize=0;swimlaneHead=0;swimlaneBody=0;fillColor=none;collapsible=0;dropTarget=0;points=[[0,0.5],[1,0.5]];portConstraint=eastwest;top=0;left=0;right=0;bottom=0;html=1;" vertex="1" parent="WSu7LC8AcZz-CQn59D3N-272">
          <mxGeometry y="30" width="280" height="30" as="geometry" />
        </mxCell>
        <mxCell id="WSu7LC8AcZz-CQn59D3N-274" value="FK1" style="shape=partialRectangle;connectable=0;fillColor=none;top=0;left=0;bottom=0;right=0;fontStyle=1;overflow=hidden;html=1;whiteSpace=wrap;" vertex="1" parent="WSu7LC8AcZz-CQn59D3N-273">
          <mxGeometry width="60" height="30" as="geometry">
            <mxRectangle width="60" height="30" as="alternateBounds" />
          </mxGeometry>
        </mxCell>
        <mxCell id="WSu7LC8AcZz-CQn59D3N-275" value="ArtistID" style="shape=partialRectangle;connectable=0;fillColor=none;top=0;left=0;bottom=0;right=0;align=left;spacingLeft=6;fontStyle=5;overflow=hidden;html=1;whiteSpace=wrap;" vertex="1" parent="WSu7LC8AcZz-CQn59D3N-273">
          <mxGeometry x="60" width="220" height="30" as="geometry">
            <mxRectangle width="220" height="30" as="alternateBounds" />
          </mxGeometry>
        </mxCell>
        <mxCell id="WSu7LC8AcZz-CQn59D3N-276" value="" style="shape=tableRow;horizontal=0;startSize=0;swimlaneHead=0;swimlaneBody=0;fillColor=none;collapsible=0;dropTarget=0;points=[[0,0.5],[1,0.5]];portConstraint=eastwest;top=0;left=0;right=0;bottom=1;html=1;" vertex="1" parent="WSu7LC8AcZz-CQn59D3N-272">
          <mxGeometry y="60" width="280" height="30" as="geometry" />
        </mxCell>
        <mxCell id="WSu7LC8AcZz-CQn59D3N-277" value="FK2" style="shape=partialRectangle;connectable=0;fillColor=none;top=0;left=0;bottom=0;right=0;fontStyle=1;overflow=hidden;html=1;whiteSpace=wrap;" vertex="1" parent="WSu7LC8AcZz-CQn59D3N-276">
          <mxGeometry width="60" height="30" as="geometry">
            <mxRectangle width="60" height="30" as="alternateBounds" />
          </mxGeometry>
        </mxCell>
        <mxCell id="WSu7LC8AcZz-CQn59D3N-278" value="UserID" style="shape=partialRectangle;connectable=0;fillColor=none;top=0;left=0;bottom=0;right=0;align=left;spacingLeft=6;fontStyle=5;overflow=hidden;html=1;whiteSpace=wrap;" vertex="1" parent="WSu7LC8AcZz-CQn59D3N-276">
          <mxGeometry x="60" width="220" height="30" as="geometry">
            <mxRectangle width="220" height="30" as="alternateBounds" />
          </mxGeometry>
        </mxCell>
        <mxCell id="WSu7LC8AcZz-CQn59D3N-293" value="" style="edgeStyle=entityRelationEdgeStyle;fontSize=12;html=1;endArrow=ERzeroToMany;startArrow=ERmandOne;rounded=0;exitX=1;exitY=0.5;exitDx=0;exitDy=0;entryX=0;entryY=0.5;entryDx=0;entryDy=0;" edge="1" parent="1" source="WSu7LC8AcZz-CQn59D3N-2" target="WSu7LC8AcZz-CQn59D3N-112">
          <mxGeometry width="100" height="100" relative="1" as="geometry">
            <mxPoint x="780" y="480" as="sourcePoint" />
            <mxPoint x="880" y="380" as="targetPoint" />
            <Array as="points">
              <mxPoint x="470" y="760" />
            </Array>
          </mxGeometry>
        </mxCell>
        <mxCell id="WSu7LC8AcZz-CQn59D3N-294" value="" style="edgeStyle=entityRelationEdgeStyle;fontSize=12;html=1;endArrow=ERzeroToMany;startArrow=ERmandOne;rounded=0;exitX=0;exitY=0.5;exitDx=0;exitDy=0;entryX=1;entryY=0.5;entryDx=0;entryDy=0;" edge="1" parent="1" source="WSu7LC8AcZz-CQn59D3N-34" target="WSu7LC8AcZz-CQn59D3N-115">
          <mxGeometry width="100" height="100" relative="1" as="geometry">
            <mxPoint x="780" y="640" as="sourcePoint" />
            <mxPoint x="880" y="540" as="targetPoint" />
            <Array as="points">
              <mxPoint x="740" y="830" />
              <mxPoint x="730" y="840" />
            </Array>
          </mxGeometry>
        </mxCell>
        <mxCell id="WSu7LC8AcZz-CQn59D3N-295" value="" style="edgeStyle=entityRelationEdgeStyle;fontSize=12;html=1;endArrow=ERzeroToMany;startArrow=ERmandOne;rounded=0;exitX=1;exitY=0.5;exitDx=0;exitDy=0;entryX=0;entryY=0.5;entryDx=0;entryDy=0;" edge="1" parent="1" source="WSu7LC8AcZz-CQn59D3N-119" target="WSu7LC8AcZz-CQn59D3N-254">
          <mxGeometry width="100" height="100" relative="1" as="geometry">
            <mxPoint x="590" y="360" as="sourcePoint" />
            <mxPoint x="690" y="260" as="targetPoint" />
          </mxGeometry>
        </mxCell>
        <mxCell id="WSu7LC8AcZz-CQn59D3N-296" value="" style="edgeStyle=entityRelationEdgeStyle;fontSize=12;html=1;endArrow=ERoneToMany;startArrow=ERmandOne;rounded=0;exitX=0;exitY=0.287;exitDx=0;exitDy=0;entryX=1;entryY=0.5;entryDx=0;entryDy=0;exitPerimeter=0;" edge="1" parent="1" source="WSu7LC8AcZz-CQn59D3N-132" target="WSu7LC8AcZz-CQn59D3N-251">
          <mxGeometry width="100" height="100" relative="1" as="geometry">
            <mxPoint x="590" y="360" as="sourcePoint" />
            <mxPoint x="690" y="260" as="targetPoint" />
          </mxGeometry>
        </mxCell>
        <mxCell id="WSu7LC8AcZz-CQn59D3N-298" value="" style="edgeStyle=entityRelationEdgeStyle;fontSize=12;html=1;endArrow=ERoneToMany;startArrow=ERmandOne;rounded=0;exitX=1;exitY=0.333;exitDx=0;exitDy=0;entryX=0;entryY=0.5;entryDx=0;entryDy=0;exitPerimeter=0;" edge="1" parent="1" source="WSu7LC8AcZz-CQn59D3N-132" target="WSu7LC8AcZz-CQn59D3N-163">
          <mxGeometry width="100" height="100" relative="1" as="geometry">
            <mxPoint x="1060" y="210" as="sourcePoint" />
            <mxPoint x="1120" y="115" as="targetPoint" />
          </mxGeometry>
        </mxCell>
        <mxCell id="WSu7LC8AcZz-CQn59D3N-299" value="" style="edgeStyle=entityRelationEdgeStyle;fontSize=12;html=1;endArrow=ERzeroToMany;startArrow=ERmandOne;rounded=0;exitX=1.031;exitY=0.2;exitDx=0;exitDy=0;exitPerimeter=0;entryX=0;entryY=0.5;entryDx=0;entryDy=0;" edge="1" parent="1" source="WSu7LC8AcZz-CQn59D3N-88" target="WSu7LC8AcZz-CQn59D3N-266">
          <mxGeometry width="100" height="100" relative="1" as="geometry">
            <mxPoint x="800" y="480" as="sourcePoint" />
            <mxPoint x="900" y="380" as="targetPoint" />
          </mxGeometry>
        </mxCell>
        <mxCell id="WSu7LC8AcZz-CQn59D3N-300" value="" style="edgeStyle=entityRelationEdgeStyle;fontSize=12;html=1;endArrow=ERzeroToMany;startArrow=ERmandOne;rounded=0;entryX=1;entryY=0.5;entryDx=0;entryDy=0;" edge="1" parent="1" target="Lj_EHtgO1FJOwl2_YcHs-5">
          <mxGeometry width="100" height="100" relative="1" as="geometry">
            <mxPoint x="970" y="102" as="sourcePoint" />
            <mxPoint x="990" y="330" as="targetPoint" />
          </mxGeometry>
        </mxCell>
        <mxCell id="WSu7LC8AcZz-CQn59D3N-301" value="" style="edgeStyle=entityRelationEdgeStyle;fontSize=12;html=1;endArrow=ERmandOne;startArrow=ERmandOne;rounded=0;jumpStyle=arc;exitX=1;exitY=0.5;exitDx=0;exitDy=0;" edge="1" parent="1" source="WSu7LC8AcZz-CQn59D3N-145">
          <mxGeometry width="100" height="100" relative="1" as="geometry">
            <mxPoint x="1720" y="80" as="sourcePoint" />
            <mxPoint x="1500" y="505" as="targetPoint" />
            <Array as="points">
              <mxPoint x="1760" y="120" />
              <mxPoint x="1760" y="180" />
              <mxPoint x="1750" y="330" />
              <mxPoint x="1780" y="410" />
              <mxPoint x="1700" y="410" />
              <mxPoint x="1750" y="400" />
              <mxPoint x="1760" y="430" />
              <mxPoint x="1850" y="400" />
              <mxPoint x="1810" y="420" />
              <mxPoint x="1670" y="350" />
              <mxPoint x="1710" y="300" />
            </Array>
          </mxGeometry>
        </mxCell>
        <mxCell id="WSu7LC8AcZz-CQn59D3N-304" value="" style="edgeStyle=entityRelationEdgeStyle;fontSize=12;html=1;endArrow=ERzeroToMany;startArrow=ERmandOne;rounded=0;exitX=1;exitY=0.5;exitDx=0;exitDy=0;" edge="1" parent="1" source="WSu7LC8AcZz-CQn59D3N-88">
          <mxGeometry width="100" height="100" relative="1" as="geometry">
            <mxPoint x="110" y="350" as="sourcePoint" />
            <mxPoint x="270" y="388" as="targetPoint" />
            <Array as="points">
              <mxPoint x="470" y="500" />
            </Array>
          </mxGeometry>
        </mxCell>
        <mxCell id="WSu7LC8AcZz-CQn59D3N-305" value="" style="edgeStyle=entityRelationEdgeStyle;fontSize=12;html=1;endArrow=ERzeroToMany;startArrow=ERmandOne;rounded=0;exitX=0.989;exitY=-0.18;exitDx=0;exitDy=0;exitPerimeter=0;entryX=0;entryY=0.5;entryDx=0;entryDy=0;" edge="1" parent="1" source="WSu7LC8AcZz-CQn59D3N-122" target="WSu7LC8AcZz-CQn59D3N-273">
          <mxGeometry width="100" height="100" relative="1" as="geometry">
            <mxPoint x="270" y="300" as="sourcePoint" />
            <mxPoint x="370" y="200" as="targetPoint" />
          </mxGeometry>
        </mxCell>
        <mxCell id="Lj_EHtgO1FJOwl2_YcHs-1" value="Albums Liked" style="shape=table;startSize=30;container=1;collapsible=1;childLayout=tableLayout;fixedRows=1;rowLines=0;fontStyle=1;align=center;resizeLast=1;html=1;whiteSpace=wrap;" vertex="1" parent="1">
          <mxGeometry x="640" y="280" width="280" height="90" as="geometry" />
        </mxCell>
        <mxCell id="Lj_EHtgO1FJOwl2_YcHs-2" value="" style="shape=tableRow;horizontal=0;startSize=0;swimlaneHead=0;swimlaneBody=0;fillColor=none;collapsible=0;dropTarget=0;points=[[0,0.5],[1,0.5]];portConstraint=eastwest;top=0;left=0;right=0;bottom=0;html=1;" vertex="1" parent="Lj_EHtgO1FJOwl2_YcHs-1">
          <mxGeometry y="30" width="280" height="30" as="geometry" />
        </mxCell>
        <mxCell id="Lj_EHtgO1FJOwl2_YcHs-3" value="FK1" style="shape=partialRectangle;connectable=0;fillColor=none;top=0;left=0;bottom=0;right=0;fontStyle=1;overflow=hidden;html=1;whiteSpace=wrap;" vertex="1" parent="Lj_EHtgO1FJOwl2_YcHs-2">
          <mxGeometry width="60" height="30" as="geometry">
            <mxRectangle width="60" height="30" as="alternateBounds" />
          </mxGeometry>
        </mxCell>
        <mxCell id="Lj_EHtgO1FJOwl2_YcHs-4" value="UserID" style="shape=partialRectangle;connectable=0;fillColor=none;top=0;left=0;bottom=0;right=0;align=left;spacingLeft=6;fontStyle=5;overflow=hidden;html=1;whiteSpace=wrap;" vertex="1" parent="Lj_EHtgO1FJOwl2_YcHs-2">
          <mxGeometry x="60" width="220" height="30" as="geometry">
            <mxRectangle width="220" height="30" as="alternateBounds" />
          </mxGeometry>
        </mxCell>
        <mxCell id="Lj_EHtgO1FJOwl2_YcHs-5" value="" style="shape=tableRow;horizontal=0;startSize=0;swimlaneHead=0;swimlaneBody=0;fillColor=none;collapsible=0;dropTarget=0;points=[[0,0.5],[1,0.5]];portConstraint=eastwest;top=0;left=0;right=0;bottom=1;html=1;" vertex="1" parent="Lj_EHtgO1FJOwl2_YcHs-1">
          <mxGeometry y="60" width="280" height="30" as="geometry" />
        </mxCell>
        <mxCell id="Lj_EHtgO1FJOwl2_YcHs-6" value="FK2" style="shape=partialRectangle;connectable=0;fillColor=none;top=0;left=0;bottom=0;right=0;fontStyle=1;overflow=hidden;html=1;whiteSpace=wrap;" vertex="1" parent="Lj_EHtgO1FJOwl2_YcHs-5">
          <mxGeometry width="60" height="30" as="geometry">
            <mxRectangle width="60" height="30" as="alternateBounds" />
          </mxGeometry>
        </mxCell>
        <mxCell id="Lj_EHtgO1FJOwl2_YcHs-7" value="AlbumID" style="shape=partialRectangle;connectable=0;fillColor=none;top=0;left=0;bottom=0;right=0;align=left;spacingLeft=6;fontStyle=5;overflow=hidden;html=1;whiteSpace=wrap;" vertex="1" parent="Lj_EHtgO1FJOwl2_YcHs-5">
          <mxGeometry x="60" width="220" height="30" as="geometry">
            <mxRectangle width="220" height="30" as="alternateBounds" />
          </mxGeometry>
        </mxCell>
        <mxCell id="Lj_EHtgO1FJOwl2_YcHs-8" value="" style="edgeStyle=entityRelationEdgeStyle;fontSize=12;html=1;endArrow=ERzeroToMany;startArrow=ERmandOne;rounded=0;exitX=1.004;exitY=0.833;exitDx=0;exitDy=0;exitPerimeter=0;" edge="1" parent="1" source="WSu7LC8AcZz-CQn59D3N-88">
          <mxGeometry width="100" height="100" relative="1" as="geometry">
            <mxPoint x="686" y="526" as="sourcePoint" />
            <mxPoint x="640" y="320" as="targetPoint" />
          </mxGeometry>
        </mxCell>
        <mxCell id="Lj_EHtgO1FJOwl2_YcHs-9" value="" style="edgeStyle=entityRelationEdgeStyle;fontSize=12;html=1;endArrow=ERzeroToMany;startArrow=ERmandOne;rounded=0;exitX=0;exitY=0.5;exitDx=0;exitDy=0;entryX=1;entryY=0.5;entryDx=0;entryDy=0;" edge="1" parent="1" source="WSu7LC8AcZz-CQn59D3N-145" target="WSu7LC8AcZz-CQn59D3N-269">
          <mxGeometry width="100" height="100" relative="1" as="geometry">
            <mxPoint x="1517" y="95" as="sourcePoint" />
            <mxPoint x="1380" y="450" as="targetPoint" />
          </mxGeometry>
        </mxCell>
      </root>
    </mxGraphModel>
  </diagram>
  <diagram id="3W2Y9wRpcRhex0bWTbQw" name="UML">
    <mxGraphModel grid="1" page="1" gridSize="10" guides="1" tooltips="1" connect="1" arrows="1" fold="1" pageScale="1" pageWidth="827" pageHeight="1169" math="0" shadow="0">
      <root>
        <mxCell id="0" />
        <mxCell id="1" parent="0" />
        <mxCell id="LjyLTYXgEC_QS40pI5Tb-11" value="" style="edgeStyle=orthogonalEdgeStyle;rounded=0;orthogonalLoop=1;jettySize=auto;html=1;" edge="1" parent="1" source="LjyLTYXgEC_QS40pI5Tb-6">
          <mxGeometry relative="1" as="geometry">
            <mxPoint x="60" y="200" as="targetPoint" />
          </mxGeometry>
        </mxCell>
        <mxCell id="LjyLTYXgEC_QS40pI5Tb-6" value="프로그램 시작" style="strokeWidth=2;html=1;shape=mxgraph.flowchart.terminator;whiteSpace=wrap;" vertex="1" parent="1">
          <mxGeometry x="-160" y="180" width="60" height="40" as="geometry" />
        </mxCell>
        <mxCell id="LjyLTYXgEC_QS40pI5Tb-13" value="" style="edgeStyle=orthogonalEdgeStyle;rounded=0;orthogonalLoop=1;jettySize=auto;html=1;" edge="1" parent="1" source="LjyLTYXgEC_QS40pI5Tb-10" target="LjyLTYXgEC_QS40pI5Tb-12">
          <mxGeometry relative="1" as="geometry" />
        </mxCell>
        <mxCell id="LjyLTYXgEC_QS40pI5Tb-28" value="" style="edgeStyle=orthogonalEdgeStyle;rounded=0;orthogonalLoop=1;jettySize=auto;html=1;" edge="1" parent="1" source="LjyLTYXgEC_QS40pI5Tb-10" target="LjyLTYXgEC_QS40pI5Tb-27">
          <mxGeometry relative="1" as="geometry" />
        </mxCell>
        <mxCell id="LjyLTYXgEC_QS40pI5Tb-10" value="어드민 인가?" style="rhombus;whiteSpace=wrap;html=1;strokeWidth=2;" vertex="1" parent="1">
          <mxGeometry x="394" y="160" width="80" height="80" as="geometry" />
        </mxCell>
        <mxCell id="LjyLTYXgEC_QS40pI5Tb-75" value="" style="edgeStyle=orthogonalEdgeStyle;rounded=0;orthogonalLoop=1;jettySize=auto;html=1;" edge="1" parent="1" source="LjyLTYXgEC_QS40pI5Tb-12" target="LjyLTYXgEC_QS40pI5Tb-29">
          <mxGeometry relative="1" as="geometry" />
        </mxCell>
        <mxCell id="LjyLTYXgEC_QS40pI5Tb-12" value="유저 플로우" style="whiteSpace=wrap;html=1;strokeWidth=2;" vertex="1" parent="1">
          <mxGeometry x="534" y="170" width="120" height="60" as="geometry" />
        </mxCell>
        <mxCell id="LjyLTYXgEC_QS40pI5Tb-102" value="" style="edgeStyle=orthogonalEdgeStyle;rounded=0;orthogonalLoop=1;jettySize=auto;html=1;" edge="1" parent="1" source="LjyLTYXgEC_QS40pI5Tb-27" target="LjyLTYXgEC_QS40pI5Tb-101">
          <mxGeometry relative="1" as="geometry" />
        </mxCell>
        <mxCell id="LjyLTYXgEC_QS40pI5Tb-27" value="어드민 플로우" style="whiteSpace=wrap;html=1;strokeWidth=2;" vertex="1" parent="1">
          <mxGeometry x="374" y="-240" width="120" height="60" as="geometry" />
        </mxCell>
        <mxCell id="LjyLTYXgEC_QS40pI5Tb-112" value="" style="edgeStyle=orthogonalEdgeStyle;rounded=0;orthogonalLoop=1;jettySize=auto;html=1;" edge="1" parent="1" source="LjyLTYXgEC_QS40pI5Tb-29" target="LjyLTYXgEC_QS40pI5Tb-93">
          <mxGeometry relative="1" as="geometry" />
        </mxCell>
        <mxCell id="LjyLTYXgEC_QS40pI5Tb-29" value="검색기능" style="whiteSpace=wrap;html=1;align=left;strokeWidth=2;" vertex="1" parent="1">
          <mxGeometry x="734" y="170" width="120" height="60" as="geometry" />
        </mxCell>
        <mxCell id="LjyLTYXgEC_QS40pI5Tb-107" value="" style="edgeStyle=orthogonalEdgeStyle;rounded=0;orthogonalLoop=1;jettySize=auto;html=1;" edge="1" parent="1" source="LjyLTYXgEC_QS40pI5Tb-31" target="LjyLTYXgEC_QS40pI5Tb-41">
          <mxGeometry relative="1" as="geometry" />
        </mxCell>
        <mxCell id="LjyLTYXgEC_QS40pI5Tb-31" value="음악 추천" style="whiteSpace=wrap;html=1;align=left;strokeWidth=2;" vertex="1" parent="1">
          <mxGeometry x="734" y="277.5" width="120" height="60" as="geometry" />
        </mxCell>
        <mxCell id="LjyLTYXgEC_QS40pI5Tb-62" value="" style="edgeStyle=orthogonalEdgeStyle;rounded=0;orthogonalLoop=1;jettySize=auto;html=1;" edge="1" parent="1" source="LjyLTYXgEC_QS40pI5Tb-32" target="LjyLTYXgEC_QS40pI5Tb-61">
          <mxGeometry relative="1" as="geometry" />
        </mxCell>
        <mxCell id="LjyLTYXgEC_QS40pI5Tb-32" value="플레이 리스트 관리" style="whiteSpace=wrap;html=1;align=left;strokeWidth=2;" vertex="1" parent="1">
          <mxGeometry x="724" y="560" width="120" height="60" as="geometry" />
        </mxCell>
        <mxCell id="LjyLTYXgEC_QS40pI5Tb-118" value="" style="edgeStyle=orthogonalEdgeStyle;rounded=0;orthogonalLoop=1;jettySize=auto;html=1;" edge="1" parent="1" source="LjyLTYXgEC_QS40pI5Tb-33" target="LjyLTYXgEC_QS40pI5Tb-117">
          <mxGeometry relative="1" as="geometry" />
        </mxCell>
        <mxCell id="LjyLTYXgEC_QS40pI5Tb-33" value="사용자 관리" style="whiteSpace=wrap;html=1;align=left;strokeWidth=2;" vertex="1" parent="1">
          <mxGeometry x="724" y="870" width="120" height="60" as="geometry" />
        </mxCell>
        <mxCell id="LjyLTYXgEC_QS40pI5Tb-44" value="" style="edgeStyle=orthogonalEdgeStyle;rounded=0;orthogonalLoop=1;jettySize=auto;html=1;entryX=0;entryY=0.5;entryDx=0;entryDy=0;" edge="1" parent="1" source="LjyLTYXgEC_QS40pI5Tb-41" target="LjyLTYXgEC_QS40pI5Tb-45">
          <mxGeometry relative="1" as="geometry">
            <mxPoint x="1124" y="307.4999999999998" as="targetPoint" />
          </mxGeometry>
        </mxCell>
        <mxCell id="LjyLTYXgEC_QS40pI5Tb-41" value="Top 10 차트&amp;nbsp;" style="whiteSpace=wrap;html=1;align=left;strokeWidth=2;" vertex="1" parent="1">
          <mxGeometry x="904" y="277.5" width="120" height="60" as="geometry" />
        </mxCell>
        <mxCell id="LjyLTYXgEC_QS40pI5Tb-45" value="일별 Top10 표시" style="whiteSpace=wrap;html=1;strokeWidth=2;" vertex="1" parent="1">
          <mxGeometry x="1188" y="277.5" width="120" height="60" as="geometry" />
        </mxCell>
        <mxCell id="LjyLTYXgEC_QS40pI5Tb-47" value="주별 Top10 표시" style="whiteSpace=wrap;html=1;strokeWidth=2;" vertex="1" parent="1">
          <mxGeometry x="1188" y="350" width="120" height="60" as="geometry" />
        </mxCell>
        <mxCell id="LjyLTYXgEC_QS40pI5Tb-49" value="월별 Top10 표시" style="whiteSpace=wrap;html=1;strokeWidth=2;" vertex="1" parent="1">
          <mxGeometry x="1188" y="420" width="120" height="60" as="geometry" />
        </mxCell>
        <mxCell id="LjyLTYXgEC_QS40pI5Tb-61" value="플레이 리스트 선택" style="whiteSpace=wrap;html=1;align=left;strokeWidth=2;" vertex="1" parent="1">
          <mxGeometry x="911" y="560" width="120" height="60" as="geometry" />
        </mxCell>
        <mxCell id="LjyLTYXgEC_QS40pI5Tb-67" value="" style="edgeStyle=orthogonalEdgeStyle;rounded=0;orthogonalLoop=1;jettySize=auto;html=1;entryX=0;entryY=0.5;entryDx=0;entryDy=0;" edge="1" parent="1" target="LjyLTYXgEC_QS40pI5Tb-66">
          <mxGeometry relative="1" as="geometry">
            <mxPoint x="1030" y="590" as="sourcePoint" />
            <Array as="points">
              <mxPoint x="1110" y="590" />
              <mxPoint x="1110" y="670" />
            </Array>
          </mxGeometry>
        </mxCell>
        <mxCell id="LjyLTYXgEC_QS40pI5Tb-69" value="" style="edgeStyle=orthogonalEdgeStyle;rounded=0;orthogonalLoop=1;jettySize=auto;html=1;exitX=1;exitY=0.5;exitDx=0;exitDy=0;" edge="1" parent="1" source="LjyLTYXgEC_QS40pI5Tb-61" target="LjyLTYXgEC_QS40pI5Tb-68">
          <mxGeometry relative="1" as="geometry">
            <mxPoint x="1314" y="590" as="sourcePoint" />
          </mxGeometry>
        </mxCell>
        <mxCell id="LjyLTYXgEC_QS40pI5Tb-66" value="플레이 리스트 삭제" style="whiteSpace=wrap;html=1;strokeWidth=2;" vertex="1" parent="1">
          <mxGeometry x="1190" y="640" width="120" height="60" as="geometry" />
        </mxCell>
        <mxCell id="LjyLTYXgEC_QS40pI5Tb-68" value="플레이 리스트 재생" style="whiteSpace=wrap;html=1;strokeWidth=2;" vertex="1" parent="1">
          <mxGeometry x="1190" y="560" width="120" height="60" as="geometry" />
        </mxCell>
        <mxCell id="LjyLTYXgEC_QS40pI5Tb-70" value="" style="edgeStyle=orthogonalEdgeStyle;rounded=0;orthogonalLoop=1;jettySize=auto;html=1;exitX=1;exitY=0.5;exitDx=0;exitDy=0;entryX=0;entryY=0.5;entryDx=0;entryDy=0;" edge="1" parent="1" source="LjyLTYXgEC_QS40pI5Tb-32" target="LjyLTYXgEC_QS40pI5Tb-71">
          <mxGeometry relative="1" as="geometry">
            <mxPoint x="854" y="600" as="sourcePoint" />
            <mxPoint x="904" y="710" as="targetPoint" />
          </mxGeometry>
        </mxCell>
        <mxCell id="LjyLTYXgEC_QS40pI5Tb-98" value="" style="edgeStyle=orthogonalEdgeStyle;rounded=0;orthogonalLoop=1;jettySize=auto;html=1;" edge="1" parent="1" target="LjyLTYXgEC_QS40pI5Tb-97">
          <mxGeometry relative="1" as="geometry">
            <mxPoint x="1190" y="750" as="sourcePoint" />
          </mxGeometry>
        </mxCell>
        <mxCell id="LjyLTYXgEC_QS40pI5Tb-116" value="" style="edgeStyle=orthogonalEdgeStyle;rounded=0;orthogonalLoop=1;jettySize=auto;html=1;" edge="1" parent="1" source="LjyLTYXgEC_QS40pI5Tb-71" target="LjyLTYXgEC_QS40pI5Tb-115">
          <mxGeometry relative="1" as="geometry" />
        </mxCell>
        <mxCell id="LjyLTYXgEC_QS40pI5Tb-71" value="플레이 리스트 생성" style="whiteSpace=wrap;html=1;align=left;strokeWidth=2;" vertex="1" parent="1">
          <mxGeometry x="911" y="730" width="120" height="60" as="geometry" />
        </mxCell>
        <mxCell id="LjyLTYXgEC_QS40pI5Tb-76" value="" style="edgeStyle=orthogonalEdgeStyle;rounded=0;orthogonalLoop=1;jettySize=auto;html=1;entryX=0;entryY=0.5;entryDx=0;entryDy=0;exitX=1;exitY=0.5;exitDx=0;exitDy=0;" edge="1" parent="1" source="LjyLTYXgEC_QS40pI5Tb-12" target="LjyLTYXgEC_QS40pI5Tb-31">
          <mxGeometry relative="1" as="geometry">
            <mxPoint x="664" y="210" as="sourcePoint" />
            <mxPoint x="744" y="210" as="targetPoint" />
          </mxGeometry>
        </mxCell>
        <mxCell id="LjyLTYXgEC_QS40pI5Tb-77" value="" style="edgeStyle=orthogonalEdgeStyle;rounded=0;orthogonalLoop=1;jettySize=auto;html=1;entryX=0;entryY=0.5;entryDx=0;entryDy=0;" edge="1" parent="1" target="LjyLTYXgEC_QS40pI5Tb-32">
          <mxGeometry relative="1" as="geometry">
            <mxPoint x="654" y="200" as="sourcePoint" />
            <mxPoint x="744" y="310" as="targetPoint" />
            <Array as="points">
              <mxPoint x="694" y="200" />
              <mxPoint x="694" y="590" />
            </Array>
          </mxGeometry>
        </mxCell>
        <mxCell id="LjyLTYXgEC_QS40pI5Tb-78" value="" style="edgeStyle=orthogonalEdgeStyle;rounded=0;orthogonalLoop=1;jettySize=auto;html=1;entryX=0;entryY=0.5;entryDx=0;entryDy=0;exitX=1;exitY=0.5;exitDx=0;exitDy=0;" edge="1" parent="1" source="LjyLTYXgEC_QS40pI5Tb-12" target="LjyLTYXgEC_QS40pI5Tb-33">
          <mxGeometry relative="1" as="geometry">
            <mxPoint x="664" y="210" as="sourcePoint" />
            <mxPoint x="734" y="600" as="targetPoint" />
            <Array as="points">
              <mxPoint x="694" y="200" />
              <mxPoint x="694" y="900" />
            </Array>
          </mxGeometry>
        </mxCell>
        <mxCell id="LjyLTYXgEC_QS40pI5Tb-84" value="" style="edgeStyle=orthogonalEdgeStyle;rounded=0;orthogonalLoop=1;jettySize=auto;html=1;entryX=0;entryY=0.5;entryDx=0;entryDy=0;" edge="1" parent="1" source="LjyLTYXgEC_QS40pI5Tb-80" target="LjyLTYXgEC_QS40pI5Tb-10">
          <mxGeometry relative="1" as="geometry">
            <mxPoint x="260" y="200" as="targetPoint" />
          </mxGeometry>
        </mxCell>
        <mxCell id="LjyLTYXgEC_QS40pI5Tb-80" value="로그인" style="whiteSpace=wrap;html=1;strokeWidth=2;" vertex="1" parent="1">
          <mxGeometry x="60" y="170" width="120" height="60" as="geometry" />
        </mxCell>
        <mxCell id="LjyLTYXgEC_QS40pI5Tb-88" value="" style="edgeStyle=orthogonalEdgeStyle;rounded=0;orthogonalLoop=1;jettySize=auto;html=1;" edge="1" parent="1" source="LjyLTYXgEC_QS40pI5Tb-81" target="LjyLTYXgEC_QS40pI5Tb-87">
          <mxGeometry relative="1" as="geometry" />
        </mxCell>
        <mxCell id="LjyLTYXgEC_QS40pI5Tb-81" value="회원가입" style="whiteSpace=wrap;html=1;strokeWidth=2;" vertex="1" parent="1">
          <mxGeometry x="60" y="257.5" width="120" height="60" as="geometry" />
        </mxCell>
        <mxCell id="LjyLTYXgEC_QS40pI5Tb-82" value="" style="edgeStyle=orthogonalEdgeStyle;rounded=0;orthogonalLoop=1;jettySize=auto;html=1;exitX=1;exitY=0.5;exitDx=0;exitDy=0;exitPerimeter=0;entryX=0;entryY=0.5;entryDx=0;entryDy=0;" edge="1" parent="1" source="LjyLTYXgEC_QS40pI5Tb-6" target="LjyLTYXgEC_QS40pI5Tb-81">
          <mxGeometry relative="1" as="geometry">
            <mxPoint x="-90" y="210" as="sourcePoint" />
            <mxPoint x="70" y="210" as="targetPoint" />
          </mxGeometry>
        </mxCell>
        <mxCell id="LjyLTYXgEC_QS40pI5Tb-92" value="" style="edgeStyle=orthogonalEdgeStyle;rounded=0;orthogonalLoop=1;jettySize=auto;html=1;" edge="1" parent="1" source="LjyLTYXgEC_QS40pI5Tb-87">
          <mxGeometry relative="1" as="geometry">
            <mxPoint x="-60" y="200" as="targetPoint" />
          </mxGeometry>
        </mxCell>
        <mxCell id="LjyLTYXgEC_QS40pI5Tb-87" value="아이디, 비밀번호 &amp;amp;&lt;br&gt;각종 개인정보 입력" style="whiteSpace=wrap;html=1;strokeWidth=2;" vertex="1" parent="1">
          <mxGeometry x="60" y="403" width="120" height="60" as="geometry" />
        </mxCell>
        <mxCell id="LjyLTYXgEC_QS40pI5Tb-96" value="" style="edgeStyle=orthogonalEdgeStyle;rounded=0;orthogonalLoop=1;jettySize=auto;html=1;" edge="1" parent="1" target="LjyLTYXgEC_QS40pI5Tb-95">
          <mxGeometry relative="1" as="geometry">
            <mxPoint x="1020" y="199.99999999999977" as="sourcePoint" />
          </mxGeometry>
        </mxCell>
        <mxCell id="LjyLTYXgEC_QS40pI5Tb-93" value="검색어 입력" style="whiteSpace=wrap;html=1;align=left;strokeWidth=2;" vertex="1" parent="1">
          <mxGeometry x="920" y="170" width="120" height="60" as="geometry" />
        </mxCell>
        <mxCell id="LjyLTYXgEC_QS40pI5Tb-95" value="검색 결과 표시" style="whiteSpace=wrap;html=1;align=left;strokeWidth=2;" vertex="1" parent="1">
          <mxGeometry x="1121" y="170" width="120" height="60" as="geometry" />
        </mxCell>
        <mxCell id="LjyLTYXgEC_QS40pI5Tb-97" value="시간 기반 생성&lt;br&gt;(자동 생성/시간에 맞춰서)" style="whiteSpace=wrap;html=1;align=left;strokeWidth=2;" vertex="1" parent="1">
          <mxGeometry x="1380" y="720" width="142" height="60" as="geometry" />
        </mxCell>
        <mxCell id="LjyLTYXgEC_QS40pI5Tb-99" value="추천 기반 생성&lt;br&gt;(장르에 따라 생성)" style="whiteSpace=wrap;html=1;align=left;strokeWidth=2;" vertex="1" parent="1">
          <mxGeometry x="1380" y="800" width="120" height="60" as="geometry" />
        </mxCell>
        <mxCell id="LjyLTYXgEC_QS40pI5Tb-100" value="" style="edgeStyle=orthogonalEdgeStyle;rounded=0;orthogonalLoop=1;jettySize=auto;html=1;entryX=0;entryY=0.5;entryDx=0;entryDy=0;" edge="1" parent="1" target="LjyLTYXgEC_QS40pI5Tb-99">
          <mxGeometry relative="1" as="geometry">
            <mxPoint x="1180" y="750" as="sourcePoint" />
            <mxPoint x="1198" y="760" as="targetPoint" />
          </mxGeometry>
        </mxCell>
        <mxCell id="LjyLTYXgEC_QS40pI5Tb-128" value="" style="edgeStyle=orthogonalEdgeStyle;rounded=0;orthogonalLoop=1;jettySize=auto;html=1;" edge="1" parent="1" source="LjyLTYXgEC_QS40pI5Tb-101">
          <mxGeometry relative="1" as="geometry">
            <mxPoint x="790" y="-210" as="targetPoint" />
          </mxGeometry>
        </mxCell>
        <mxCell id="LjyLTYXgEC_QS40pI5Tb-101" value="데이터 조회" style="whiteSpace=wrap;html=1;strokeWidth=2;" vertex="1" parent="1">
          <mxGeometry x="574" y="-240" width="120" height="60" as="geometry" />
        </mxCell>
        <mxCell id="LjyLTYXgEC_QS40pI5Tb-109" value="" style="edgeStyle=orthogonalEdgeStyle;rounded=0;orthogonalLoop=1;jettySize=auto;html=1;entryX=0;entryY=0.5;entryDx=0;entryDy=0;exitX=1;exitY=0.5;exitDx=0;exitDy=0;" edge="1" parent="1" source="LjyLTYXgEC_QS40pI5Tb-41" target="LjyLTYXgEC_QS40pI5Tb-47">
          <mxGeometry relative="1" as="geometry">
            <mxPoint x="1034" y="317" as="sourcePoint" />
            <mxPoint x="1198" y="317" as="targetPoint" />
          </mxGeometry>
        </mxCell>
        <mxCell id="LjyLTYXgEC_QS40pI5Tb-110" value="" style="edgeStyle=orthogonalEdgeStyle;rounded=0;orthogonalLoop=1;jettySize=auto;html=1;entryX=0;entryY=0.5;entryDx=0;entryDy=0;exitX=1;exitY=0.5;exitDx=0;exitDy=0;" edge="1" parent="1" source="LjyLTYXgEC_QS40pI5Tb-41" target="LjyLTYXgEC_QS40pI5Tb-49">
          <mxGeometry relative="1" as="geometry">
            <mxPoint x="1044" y="327" as="sourcePoint" />
            <mxPoint x="1208" y="327" as="targetPoint" />
          </mxGeometry>
        </mxCell>
        <mxCell id="LjyLTYXgEC_QS40pI5Tb-115" value="플레이 리스트 &lt;br&gt;이름 입력" style="whiteSpace=wrap;html=1;align=left;strokeWidth=2;" vertex="1" parent="1">
          <mxGeometry x="1140" y="730" width="120" height="60" as="geometry" />
        </mxCell>
        <mxCell id="LjyLTYXgEC_QS40pI5Tb-126" value="" style="edgeStyle=orthogonalEdgeStyle;rounded=0;orthogonalLoop=1;jettySize=auto;html=1;" edge="1" parent="1" source="LjyLTYXgEC_QS40pI5Tb-117" target="LjyLTYXgEC_QS40pI5Tb-125">
          <mxGeometry relative="1" as="geometry" />
        </mxCell>
        <mxCell id="LjyLTYXgEC_QS40pI5Tb-117" value="개인정보 조회 및 변경" style="whiteSpace=wrap;html=1;align=left;strokeWidth=2;" vertex="1" parent="1">
          <mxGeometry x="924" y="870" width="126" height="60" as="geometry" />
        </mxCell>
        <mxCell id="LjyLTYXgEC_QS40pI5Tb-122" value="" style="edgeStyle=orthogonalEdgeStyle;rounded=0;orthogonalLoop=1;jettySize=auto;html=1;" edge="1" parent="1" source="LjyLTYXgEC_QS40pI5Tb-119" target="LjyLTYXgEC_QS40pI5Tb-121">
          <mxGeometry relative="1" as="geometry" />
        </mxCell>
        <mxCell id="LjyLTYXgEC_QS40pI5Tb-119" value="구독제 관리" style="whiteSpace=wrap;html=1;align=left;strokeWidth=2;" vertex="1" parent="1">
          <mxGeometry x="924" y="960" width="120" height="60" as="geometry" />
        </mxCell>
        <mxCell id="LjyLTYXgEC_QS40pI5Tb-120" value="" style="edgeStyle=orthogonalEdgeStyle;rounded=0;orthogonalLoop=1;jettySize=auto;html=1;exitX=1;exitY=0.5;exitDx=0;exitDy=0;entryX=0;entryY=0.5;entryDx=0;entryDy=0;" edge="1" parent="1" source="LjyLTYXgEC_QS40pI5Tb-33" target="LjyLTYXgEC_QS40pI5Tb-119">
          <mxGeometry relative="1" as="geometry">
            <mxPoint x="854" y="910" as="sourcePoint" />
            <mxPoint x="934" y="910" as="targetPoint" />
          </mxGeometry>
        </mxCell>
        <mxCell id="LjyLTYXgEC_QS40pI5Tb-121" value="구독하기" style="whiteSpace=wrap;html=1;align=left;strokeWidth=2;" vertex="1" parent="1">
          <mxGeometry x="1124" y="960" width="120" height="60" as="geometry" />
        </mxCell>
        <mxCell id="LjyLTYXgEC_QS40pI5Tb-123" value="구독 취소하기" style="whiteSpace=wrap;html=1;align=left;strokeWidth=2;" vertex="1" parent="1">
          <mxGeometry x="1124" y="1040" width="120" height="60" as="geometry" />
        </mxCell>
        <mxCell id="LjyLTYXgEC_QS40pI5Tb-124" value="" style="edgeStyle=orthogonalEdgeStyle;rounded=0;orthogonalLoop=1;jettySize=auto;html=1;exitX=1;exitY=0.5;exitDx=0;exitDy=0;entryX=0;entryY=0.5;entryDx=0;entryDy=0;" edge="1" parent="1" source="LjyLTYXgEC_QS40pI5Tb-119" target="LjyLTYXgEC_QS40pI5Tb-123">
          <mxGeometry relative="1" as="geometry">
            <mxPoint x="1054" y="1000" as="sourcePoint" />
            <mxPoint x="1134" y="1000" as="targetPoint" />
          </mxGeometry>
        </mxCell>
        <mxCell id="LjyLTYXgEC_QS40pI5Tb-125" value="아 귀찮아" style="whiteSpace=wrap;html=1;align=left;strokeWidth=2;" vertex="1" parent="1">
          <mxGeometry x="1133" y="870" width="120" height="60" as="geometry" />
        </mxCell>
        <mxCell id="LjyLTYXgEC_QS40pI5Tb-130" value="" style="edgeStyle=orthogonalEdgeStyle;rounded=0;orthogonalLoop=1;jettySize=auto;html=1;" edge="1" parent="1" source="LjyLTYXgEC_QS40pI5Tb-127" target="LjyLTYXgEC_QS40pI5Tb-129">
          <mxGeometry relative="1" as="geometry" />
        </mxCell>
        <mxCell id="LjyLTYXgEC_QS40pI5Tb-127" value="검색 결과 표시" style="whiteSpace=wrap;html=1;strokeWidth=2;" vertex="1" parent="1">
          <mxGeometry x="980" y="-240" width="120" height="60" as="geometry" />
        </mxCell>
        <mxCell id="LjyLTYXgEC_QS40pI5Tb-140" value="" style="edgeStyle=orthogonalEdgeStyle;rounded=0;orthogonalLoop=1;jettySize=auto;html=1;" edge="1" parent="1" source="LjyLTYXgEC_QS40pI5Tb-129" target="LjyLTYXgEC_QS40pI5Tb-139">
          <mxGeometry relative="1" as="geometry" />
        </mxCell>
        <mxCell id="LjyLTYXgEC_QS40pI5Tb-129" value="수정" style="whiteSpace=wrap;html=1;strokeWidth=2;" vertex="1" parent="1">
          <mxGeometry x="1290" y="-240" width="120" height="60" as="geometry" />
        </mxCell>
        <mxCell id="LjyLTYXgEC_QS40pI5Tb-148" value="" style="edgeStyle=orthogonalEdgeStyle;rounded=0;orthogonalLoop=1;jettySize=auto;html=1;" edge="1" parent="1" source="LjyLTYXgEC_QS40pI5Tb-131">
          <mxGeometry relative="1" as="geometry">
            <mxPoint x="1350" y="10" as="targetPoint" />
            <Array as="points">
              <mxPoint x="1570" y="-130" />
              <mxPoint x="1570" y="10" />
            </Array>
          </mxGeometry>
        </mxCell>
        <mxCell id="LjyLTYXgEC_QS40pI5Tb-131" value="삭제" style="whiteSpace=wrap;html=1;strokeWidth=2;" vertex="1" parent="1">
          <mxGeometry x="1290" y="-160" width="120" height="60" as="geometry" />
        </mxCell>
        <mxCell id="LjyLTYXgEC_QS40pI5Tb-132" value="" style="edgeStyle=orthogonalEdgeStyle;rounded=0;orthogonalLoop=1;jettySize=auto;html=1;exitX=1;exitY=0.5;exitDx=0;exitDy=0;entryX=0;entryY=0.5;entryDx=0;entryDy=0;" edge="1" parent="1" source="LjyLTYXgEC_QS40pI5Tb-127" target="LjyLTYXgEC_QS40pI5Tb-131">
          <mxGeometry relative="1" as="geometry">
            <mxPoint x="904" y="-200" as="sourcePoint" />
            <mxPoint x="984" y="-200" as="targetPoint" />
          </mxGeometry>
        </mxCell>
        <mxCell id="LjyLTYXgEC_QS40pI5Tb-136" value="" style="edgeStyle=orthogonalEdgeStyle;rounded=0;orthogonalLoop=1;jettySize=auto;html=1;" edge="1" parent="1" source="LjyLTYXgEC_QS40pI5Tb-135" target="LjyLTYXgEC_QS40pI5Tb-127">
          <mxGeometry relative="1" as="geometry" />
        </mxCell>
        <mxCell id="LjyLTYXgEC_QS40pI5Tb-135" value="검색어 입력" style="whiteSpace=wrap;html=1;strokeWidth=2;" vertex="1" parent="1">
          <mxGeometry x="760" y="-240" width="120" height="60" as="geometry" />
        </mxCell>
        <mxCell id="LjyLTYXgEC_QS40pI5Tb-146" value="" style="edgeStyle=orthogonalEdgeStyle;rounded=0;orthogonalLoop=1;jettySize=auto;html=1;" edge="1" parent="1" source="LjyLTYXgEC_QS40pI5Tb-137">
          <mxGeometry relative="1" as="geometry">
            <mxPoint x="540" y="-210" as="targetPoint" />
            <Array as="points">
              <mxPoint x="1350" y="10" />
              <mxPoint x="541" y="10" />
            </Array>
          </mxGeometry>
        </mxCell>
        <mxCell id="LjyLTYXgEC_QS40pI5Tb-137" value="조회 종료" style="whiteSpace=wrap;html=1;strokeWidth=2;" vertex="1" parent="1">
          <mxGeometry x="1290" y="-80" width="120" height="60" as="geometry" />
        </mxCell>
        <mxCell id="LjyLTYXgEC_QS40pI5Tb-138" value="" style="edgeStyle=orthogonalEdgeStyle;rounded=0;orthogonalLoop=1;jettySize=auto;html=1;exitX=1;exitY=0.5;exitDx=0;exitDy=0;entryX=0;entryY=0.5;entryDx=0;entryDy=0;" edge="1" parent="1" source="LjyLTYXgEC_QS40pI5Tb-127" target="LjyLTYXgEC_QS40pI5Tb-137">
          <mxGeometry relative="1" as="geometry">
            <mxPoint x="1110" y="-200" as="sourcePoint" />
            <mxPoint x="1230" y="-120" as="targetPoint" />
          </mxGeometry>
        </mxCell>
        <mxCell id="LjyLTYXgEC_QS40pI5Tb-142" value="" style="edgeStyle=orthogonalEdgeStyle;rounded=0;orthogonalLoop=1;jettySize=auto;html=1;" edge="1" parent="1" source="LjyLTYXgEC_QS40pI5Tb-139" target="LjyLTYXgEC_QS40pI5Tb-141">
          <mxGeometry relative="1" as="geometry" />
        </mxCell>
        <mxCell id="LjyLTYXgEC_QS40pI5Tb-139" value="수정 사항 입력" style="whiteSpace=wrap;html=1;strokeWidth=2;" vertex="1" parent="1">
          <mxGeometry x="1490" y="-240" width="120" height="60" as="geometry" />
        </mxCell>
        <mxCell id="LjyLTYXgEC_QS40pI5Tb-150" value="" style="edgeStyle=orthogonalEdgeStyle;rounded=0;orthogonalLoop=1;jettySize=auto;html=1;" edge="1" parent="1" source="LjyLTYXgEC_QS40pI5Tb-141">
          <mxGeometry relative="1" as="geometry">
            <mxPoint x="1570" y="10" as="targetPoint" />
            <Array as="points">
              <mxPoint x="1880" y="-210" />
              <mxPoint x="1880" y="10" />
            </Array>
          </mxGeometry>
        </mxCell>
        <mxCell id="LjyLTYXgEC_QS40pI5Tb-141" value="수정 여부 결정&lt;br&gt;(예/아니오)" style="whiteSpace=wrap;html=1;strokeWidth=2;" vertex="1" parent="1">
          <mxGeometry x="1690" y="-240" width="120" height="60" as="geometry" />
        </mxCell>
        <mxCell id="LjyLTYXgEC_QS40pI5Tb-152" value="종료" style="strokeWidth=2;html=1;shape=mxgraph.flowchart.terminator;whiteSpace=wrap;" vertex="1" parent="1">
          <mxGeometry x="584" y="-350" width="100" height="60" as="geometry" />
        </mxCell>
        <mxCell id="LjyLTYXgEC_QS40pI5Tb-153" value="" style="edgeStyle=orthogonalEdgeStyle;rounded=0;orthogonalLoop=1;jettySize=auto;html=1;exitX=1;exitY=0.5;exitDx=0;exitDy=0;entryX=0;entryY=0.5;entryDx=0;entryDy=0;entryPerimeter=0;" edge="1" parent="1" source="LjyLTYXgEC_QS40pI5Tb-27" target="LjyLTYXgEC_QS40pI5Tb-152">
          <mxGeometry relative="1" as="geometry">
            <mxPoint x="504" y="-200" as="sourcePoint" />
            <mxPoint x="584" y="-200" as="targetPoint" />
          </mxGeometry>
        </mxCell>
        <mxCell id="LjyLTYXgEC_QS40pI5Tb-154" value="종료" style="strokeWidth=2;html=1;shape=mxgraph.flowchart.terminator;whiteSpace=wrap;" vertex="1" parent="1">
          <mxGeometry x="744" y="990" width="100" height="60" as="geometry" />
        </mxCell>
        <mxCell id="LjyLTYXgEC_QS40pI5Tb-155" value="" style="edgeStyle=orthogonalEdgeStyle;rounded=0;orthogonalLoop=1;jettySize=auto;html=1;entryX=0;entryY=0.5;entryDx=0;entryDy=0;exitX=1;exitY=0.5;exitDx=0;exitDy=0;entryPerimeter=0;" edge="1" parent="1" source="LjyLTYXgEC_QS40pI5Tb-12" target="LjyLTYXgEC_QS40pI5Tb-154">
          <mxGeometry relative="1" as="geometry">
            <mxPoint x="664" y="210" as="sourcePoint" />
            <mxPoint x="734" y="910" as="targetPoint" />
            <Array as="points">
              <mxPoint x="690" y="200" />
              <mxPoint x="690" y="1020" />
            </Array>
          </mxGeometry>
        </mxCell>
      </root>
    </mxGraphModel>
  </diagram>
</mxfile>
